<svg width="20" height="20" viewBox="0 0 20 20" fill="none" xmlns="http://www.w3.org/2000/svg">
<path d="M9.99994 7.50084V10.8342M9.99994 14.1675H10.0083M18.1083 15.0008L11.4416 3.33417C11.2962 3.07768 11.0854 2.86433 10.8307 2.7159C10.576 2.56746 10.2864 2.48926 9.99161 2.48926C9.69678 2.48926 9.40724 2.56746 9.1525 2.7159C8.89777 2.86433 8.68697 3.07768 8.54161 3.33417L1.87494 15.0008C1.72801 15.2553 1.65096 15.5441 1.65162 15.8379C1.65227 16.1318 1.73059 16.4202 1.87865 16.674C2.0267 16.9278 2.23923 17.138 2.49469 17.2832C2.75014 17.4284 3.03945 17.5035 3.33327 17.5008H16.6666C16.959 17.5005 17.2462 17.4233 17.4993 17.2769C17.7525 17.1305 17.9626 16.9201 18.1087 16.6668C18.2548 16.4135 18.3316 16.1262 18.3316 15.8337C18.3315 15.5413 18.2545 15.2541 18.1083 15.0008Z" stroke="#CA0000" stroke-linecap="round" stroke-linejoin="round"/>
</svg>
