<svg width="20" height="20" viewBox="0 0 20 20" fill="none" xmlns="http://www.w3.org/2000/svg">
<path d="M13.7496 15.625H6.24958M13.7496 15.625C14.4126 15.625 15.0485 15.8884 15.5173 16.3572C15.9862 16.8261 16.2496 17.462 16.2496 18.125H3.74958C3.74958 17.462 4.01297 16.8261 4.48181 16.3572C4.95065 15.8884 5.58654 15.625 6.24958 15.625M13.7496 15.625V12.8125C13.7496 12.295 13.3304 11.875 12.8121 11.875H12.0862M6.24958 15.625V12.8125C6.24958 12.295 6.66958 11.875 7.18708 11.875H7.91375M12.0862 11.875H7.91375M12.0862 11.875C11.6182 11.0666 11.3385 10.1631 11.2679 9.23167M7.91375 11.875C8.38151 11.0666 8.66094 10.163 8.73125 9.23167M11.2679 9.23167C12.1079 9.03782 12.891 8.65284 13.5579 8.10667M11.2679 9.23167C10.4333 9.42417 9.56585 9.42417 8.73125 9.23167M8.73125 9.23167C7.89158 9.0377 7.10794 8.65273 6.44125 8.10667M4.37458 3.53C3.55625 3.64917 2.74625 3.79417 1.94458 3.96333C2.13041 5.05399 2.67256 6.05227 3.4862 6.80198C4.29984 7.55168 5.33906 8.01051 6.44125 8.10667M4.37458 3.53V3.75C4.37458 5.50667 5.17958 7.075 6.44125 8.10667M4.37458 3.53V2.2675C6.21291 2.00833 8.09125 1.875 9.99958 1.875C11.9087 1.875 13.7871 2.00833 15.6246 2.26667V3.53M15.6246 3.53V3.75C15.6246 5.50667 14.8196 7.075 13.5579 8.10667M15.6246 3.53C16.439 3.6485 17.2494 3.79302 18.0546 3.96333C17.8688 5.05386 17.3268 6.05205 16.5133 6.80174C15.6998 7.55143 14.66 8.01034 13.5579 8.10667" stroke="white" stroke-linecap="round" stroke-linejoin="round"/>
</svg>
