<svg width="16" height="16" viewBox="0 0 16 16" fill="none" xmlns="http://www.w3.org/2000/svg">
<path d="M0.919531 6.69141L0.576938 7.034L0.234375 6.69141" stroke="white" stroke-miterlimit="10" stroke-linecap="round" stroke-linejoin="round"/>
<path d="M0.576904 6.91009C0.576904 3.49097 2.79265 2.07719 5.13097 1.96484M13.8364 10.4714L14.179 10.1288L14.5216 10.4714" stroke="white" stroke-miterlimit="10" stroke-linecap="round" stroke-linejoin="round"/>
<path d="M14.1789 10.2531C14.1789 13.6723 11.9632 15.086 9.62488 15.1984M13.4433 7.68134C13.5009 7.69524 13.5518 7.72912 13.5868 7.77697L13.7647 8.01947C13.8556 8.14341 14.0356 8.15719 14.1443 8.04847L15.0562 7.13653C15.1649 7.02784 15.1511 6.84784 15.0272 6.75694L14.7847 6.57909C14.686 6.50672 14.6535 6.3735 14.7091 6.26447C14.7857 6.11412 14.8505 5.95805 14.903 5.79766C14.9413 5.68047 15.0579 5.60759 15.1797 5.62631L15.4766 5.67197C15.6285 5.69534 15.7655 5.57778 15.7655 5.42409V4.13441C15.7655 3.98069 15.6285 3.86316 15.4766 3.88653L15.1797 3.93219C15.0579 3.95094 14.9413 3.87803 14.903 3.76084C14.8505 3.60045 14.7857 3.44437 14.7091 3.29403C14.6535 3.185 14.686 3.05178 14.7847 2.97941L15.0272 2.80156C15.1511 2.71066 15.1648 2.53066 15.0562 2.42197L14.1443 1.51003C14.0356 1.40134 13.8556 1.41509 13.7647 1.53906L13.5868 1.78156C13.5144 1.88025 13.3812 1.91272 13.2722 1.85716C13.1219 1.78052 12.9658 1.7157 12.8054 1.66328C12.6882 1.62497 12.6153 1.50838 12.634 1.38653L12.6797 1.08969C12.7031 0.937781 12.5855 0.800781 12.4318 0.800781H11.1421C10.9884 0.800781 10.8709 0.937781 10.8943 1.08969L10.9399 1.38653C10.9587 1.50838 10.8858 1.625 10.7686 1.66328C10.6082 1.71572 10.4521 1.78054 10.3018 1.85716C10.1927 1.91272 10.0595 1.88025 9.98713 1.78156L9.80929 1.53906C9.71838 1.41513 9.53838 1.40134 9.42969 1.51003L8.51775 2.42197C8.40907 2.53066 8.42282 2.71066 8.54675 2.80156L8.78925 2.97941C8.88794 3.05178 8.92041 3.185 8.86485 3.29403C8.82264 3.37685 8.78399 3.46144 8.749 3.54756M10.4218 4.157C10.6582 3.63919 11.1805 3.27931 11.787 3.27931C12.6154 3.27931 13.2869 3.95084 13.2869 4.77925C13.2869 5.46541 12.8262 6.04394 12.1972 6.22241M4.95829 4.53731C5.19016 4.75034 5.33547 5.05609 5.33547 5.39578M2.3501 7.96881C2.46751 7.93035 2.5903 7.91081 2.71385 7.91094C2.95522 7.91094 3.17947 7.98431 3.36547 8.11" stroke="white" stroke-miterlimit="10" stroke-linecap="round" stroke-linejoin="round"/>
<path d="M2.35033 7.96875C1.88477 8.12156 1.54858 8.55972 1.54858 9.07638C1.54858 9.72006 2.0704 10.2419 2.71408 10.2419C2.91489 10.2422 3.11233 10.1904 3.28712 10.0915" stroke="white" stroke-miterlimit="10" stroke-linecap="round" stroke-linejoin="round"/>
<path d="M2.97262 12.2404C3.09979 12.2864 3.23401 12.3098 3.36924 12.3096C3.45287 12.3096 3.53437 12.3006 3.61302 12.2839C3.59857 12.3578 3.59127 12.4329 3.59124 12.5082C3.59124 13.1519 4.11305 13.6737 4.75674 13.6737C4.92427 13.6739 5.08984 13.6377 5.24208 13.5678C5.45543 13.8047 5.76446 13.9538 6.10837 13.9538C6.75205 13.9538 7.27386 13.432 7.27386 12.7883V4.72605C7.27386 4.08236 6.75205 3.56055 6.10837 3.56055C5.52915 3.56055 5.04887 3.98314 4.9584 4.53677C4.7509 4.34611 4.47418 4.22964 4.17018 4.22964C3.52649 4.22964 3.00468 4.75145 3.00468 5.39514C3.00446 5.59744 3.05717 5.79628 3.15755 5.97192C2.51827 5.97705 2.00155 6.49667 2.00155 7.13717C2.00155 7.46273 2.13518 7.75698 2.35043 7.96845C1.8849 8.12127 1.54858 8.55911 1.54858 9.07576C1.54858 9.6932 2.0288 10.1982 2.63608 10.2384C2.37246 10.452 2.2038 10.7783 2.2038 11.1441C2.2038 11.2523 2.21855 11.357 2.24612 11.4565M9.58921 4.5367C9.35736 4.74973 9.21202 5.05548 9.21202 5.39517M8.62543 12.5082C8.62543 12.9105 8.82927 13.2652 9.13927 13.4747M12.1974 7.9682C12.08 7.92974 11.9572 7.9102 11.8336 7.91033C11.5922 7.91033 11.368 7.9837 11.182 8.10939" stroke="white" stroke-miterlimit="10" stroke-linecap="round" stroke-linejoin="round"/>
<path d="M11.8337 10.2419C12.4774 10.2419 12.9992 9.72006 12.9992 9.07638C12.9992 8.55972 12.6631 8.12156 12.1975 7.96875" stroke="white" stroke-miterlimit="10" stroke-linecap="round" stroke-linejoin="round"/>
<path d="M11.2605 10.0918C11.4353 10.1907 11.6327 10.2425 11.8335 10.2421" stroke="white" stroke-miterlimit="10" stroke-linecap="round" stroke-linejoin="round"/>
<path d="M4.72974 7.51827C4.72974 7.05736 5.10336 6.68373 5.56427 6.68373M4.95842 10.2015C4.95842 9.74061 5.33205 9.36698 5.79295 9.36698M7.2738 4.72605C7.2738 4.08236 7.79561 3.56055 8.4393 3.56055C9.01852 3.56055 9.4988 3.98314 9.58927 4.53677C9.79677 4.34611 10.0735 4.22964 10.3775 4.22964C11.0212 4.22964 11.543 4.75145 11.543 5.39514C11.5432 5.59744 11.4905 5.79628 11.3901 5.97192C12.0294 5.97705 12.5461 6.49667 12.5461 7.13717C12.5461 7.46273 12.4125 7.75698 12.1972 7.96845C12.6628 8.12127 12.9991 8.55911 12.9991 9.07577C12.9991 9.6932 12.5189 10.1982 11.9116 10.2384C12.1752 10.452 12.3439 10.7783 12.3439 11.1441C12.3439 11.7878 11.822 12.3096 11.1784 12.3096C11.0947 12.3096 11.0132 12.3006 10.9346 12.2839C10.9487 12.3565 10.9564 12.4315 10.9564 12.5082C10.9564 13.1519 10.4345 13.6737 9.79086 13.6737C9.62333 13.6738 9.45776 13.6377 9.30552 13.5678C9.09217 13.8047 8.78314 13.9537 8.43924 13.9537C7.79555 13.9537 7.27374 13.4319 7.27374 12.7882C7.2738 12.1446 7.2738 5.36973 7.2738 4.72605Z" stroke="white" stroke-miterlimit="10" stroke-linecap="round" stroke-linejoin="round"/>
<path d="M9.45489 10.2014C9.45489 9.74047 9.08127 9.36684 8.62036 9.36684M9.78099 7.51813C9.78099 7.05722 9.40736 6.68359 8.94646 6.68359" stroke="white" stroke-miterlimit="10" stroke-linecap="round" stroke-linejoin="round"/>
</svg>
