<svg width="16" height="16" viewBox="0 0 16 16" fill="none" xmlns="http://www.w3.org/2000/svg">
<g clip-path="url(#clip0_590_19127)">
<path d="M0.336947 9.47953C0.46834 9.45431 0.554644 9.32728 0.529431 9.19589C0.526037 9.17844 0.207977 7.4388 1.32555 6.09189C1.38131 6.0245 1.39634 5.93238 1.3658 5.85044C1.35949 5.83395 0.736462 4.16365 1.53258 2.91807C2.05476 2.1011 3.07828 1.63468 4.57452 1.53141C4.62931 1.52753 4.68119 1.50522 4.72143 1.46789C4.72919 1.4611 5.48749 0.772618 6.24095 0.725587C6.37476 0.71686 6.4761 0.601951 6.46786 0.468618C6.45961 0.335284 6.33743 0.226193 6.21089 0.241708C5.42204 0.291163 4.6807 0.866193 4.45961 1.05334C2.84507 1.17989 1.72313 1.71904 1.12434 2.65674C0.330159 3.89989 0.720947 5.43007 0.866886 5.88971C-0.292872 7.39177 0.0387647 9.20898 0.0533102 9.28704C0.0756132 9.40341 0.176947 9.48389 0.291371 9.48389C0.306401 9.48341 0.321916 9.48244 0.336947 9.47953Z" fill="#22577A" stroke="#22577A" stroke-width="0.5"/>
<path d="M4.02605 15.6817C4.07356 15.7316 4.13756 15.7573 4.20205 15.7573C4.26168 15.7573 4.32181 15.7355 4.36835 15.6909C4.46581 15.5993 4.47017 15.4456 4.37805 15.3481C4.02265 14.9719 4.09344 13.753 4.22532 13.0393C4.22774 12.9879 4.2772 11.7578 3.82484 10.6441C3.51017 9.86933 3.47187 8.83176 3.47187 8.37794C3.47526 8.29842 3.47671 8.21794 3.47574 8.13648C3.47429 8.00509 3.36908 7.89891 3.23768 7.89648C3.11259 7.89648 2.9972 7.99636 2.9909 8.12776C2.99041 8.1423 2.98605 8.23345 2.98605 8.37891C2.91429 9.84606 2.07405 10.9937 2.06532 11.0053C1.98532 11.113 2.00762 11.2647 2.11526 11.3442C2.22241 11.4252 2.37417 11.4024 2.45417 11.2948C2.47987 11.2613 2.8469 10.7619 3.13393 9.99248C3.19065 10.2771 3.26871 10.5632 3.37587 10.8269C3.78314 11.8301 3.74241 12.984 3.74532 12.9835C3.70605 13.1896 3.38508 15.0029 4.02605 15.6817Z" fill="#22577A" stroke="#22577A" stroke-width="0.5"/>
<path d="M14.876 2.65715C14.2767 1.71945 13.1548 1.1803 11.5407 1.05375C11.3192 0.866603 10.5783 0.291573 9.78947 0.241633C9.66487 0.226603 9.54075 0.334724 9.5325 0.468542C9.52378 0.601876 9.6256 0.71727 9.75941 0.725512C10.5095 0.773027 11.2717 1.46151 11.2789 1.4683C11.3192 1.50515 11.3711 1.52745 11.4258 1.53133C12.9206 1.6346 13.9437 2.10054 14.4663 2.91557C15.262 4.15727 14.6409 5.83436 14.6346 5.85085C14.6035 5.9323 14.6191 6.02442 14.6748 6.09181C15.7875 7.43339 15.4743 9.17836 15.4709 9.19582C15.4462 9.32721 15.5325 9.45424 15.6639 9.47945C15.6794 9.48236 15.6944 9.48382 15.7095 9.48382C15.8234 9.48382 15.9247 9.40285 15.947 9.28697C15.9621 9.20891 16.2932 7.39169 15.1335 5.88963C15.2794 5.43048 15.6702 3.90078 14.876 2.65715Z" fill="#22577A" stroke="#22577A" stroke-width="0.5"/>
<path d="M12.8659 9.99248C13.1529 10.7619 13.5199 11.2608 13.5456 11.2948C13.6261 11.4024 13.7779 11.4252 13.8846 11.3442C13.9922 11.2647 14.014 11.1125 13.9345 11.0053C13.9253 10.9937 13.0855 9.84606 13.0138 8.37891C13.0138 8.23345 13.0094 8.14279 13.0089 8.12776C13.0026 7.99636 12.895 7.89745 12.7621 7.89648C12.6307 7.89891 12.5255 8.00558 12.5241 8.13648C12.5236 8.21891 12.5246 8.30036 12.5279 8.38085C12.5279 8.83564 12.4901 9.86982 12.175 10.6441C11.7226 11.7583 11.7721 12.9879 11.7789 13.0737C11.9073 13.753 11.9786 14.9709 11.6222 15.3481C11.5301 15.4456 11.5345 15.5993 11.6319 15.6909C11.678 15.7355 11.7376 15.7573 11.7978 15.7573C11.8622 15.7573 11.9262 15.7316 11.9738 15.6817C12.6147 15.0034 12.2933 13.1881 12.2584 13.0179C12.2579 13.0068 12.2123 11.8402 12.6235 10.8269C12.7311 10.5632 12.8092 10.2771 12.8659 9.99248Z" fill="#22577A" stroke="#22577A" stroke-width="0.5"/>
<path d="M12.9121 5.28516C12.7783 5.28516 12.6696 5.39376 12.6696 5.52758C12.6696 6.85655 11.5671 7.93825 10.2115 7.93825C9.42941 7.93825 8.71086 7.58334 8.24104 6.96322C8.1494 6.84297 7.94674 6.84249 7.85462 6.9637C7.3848 7.58285 6.66625 7.93825 5.88419 7.93825C4.52904 7.93825 3.42601 6.85704 3.42601 5.52758C3.42601 5.39376 3.3174 5.28516 3.18359 5.28516C3.04977 5.28516 2.94116 5.39376 2.94116 5.52758C2.94116 7.12419 4.2614 8.4231 5.88419 8.4231C6.71813 8.4231 7.49147 8.08516 8.04807 7.48637C8.60468 8.08467 9.37801 8.4231 10.212 8.4231C11.8347 8.4231 13.155 7.12419 13.155 5.52758C13.1545 5.39376 13.0464 5.28516 12.9121 5.28516Z" fill="#22577A" stroke="#22577A" stroke-width="0.5"/>
<path d="M10.1504 2.86979C9.38917 3.06907 8.47136 3.71343 8.09705 3.99319C7.18845 3.16264 5.99184 2.87997 5.93851 2.86785C5.80711 2.83828 5.67766 2.91925 5.6476 3.04967C5.61754 3.18058 5.69899 3.31052 5.82942 3.34058C5.84202 3.34349 7.08178 3.63634 7.90457 4.48191C7.95208 4.53088 8.01511 4.55513 8.07814 4.55513C8.13148 4.55513 8.18481 4.53767 8.22942 4.50228C8.24105 4.49258 9.40954 3.56458 10.2726 3.33864C10.402 3.30519 10.4796 3.17234 10.4457 3.04288C10.4122 2.91343 10.2803 2.8344 10.1504 2.86979Z" fill="#22577A" stroke="#22577A" stroke-width="0.5"/>
</g>
<defs>
<clipPath id="clip0_590_19127">
<rect width="16" height="16" fill="white"/>
</clipPath>
</defs>
</svg>
