<svg width="16" height="16" viewBox="0 0 16 16" fill="none" xmlns="http://www.w3.org/2000/svg">
<path d="M5.33325 1.33398V3.33398" stroke="#1B1A1F" stroke-miterlimit="10" stroke-linecap="round" stroke-linejoin="round"/>
<path d="M10.6667 1.33398V3.33398" stroke="#1B1A1F" stroke-miterlimit="10" stroke-linecap="round" stroke-linejoin="round"/>
<path d="M2.33325 6.06055L13.6666 6.06055" stroke="#1B1A1F" stroke-miterlimit="10" stroke-linecap="round" stroke-linejoin="round"/>
<path d="M14 5.66732L14 11.334C14 13.334 13 14.6673 10.6667 14.6673L5.33333 14.6673C3 14.6673 2 13.334 2 11.334L2 5.66732C2 3.66732 3 2.33398 5.33333 2.33398L10.6667 2.33398C13 2.33398 14 3.66732 14 5.66732Z" stroke="#1B1A1F" stroke-miterlimit="10" stroke-linecap="round" stroke-linejoin="round"/>
<path d="M10.4632 9.13411H10.4692" stroke="#1B1A1F" stroke-linecap="round" stroke-linejoin="round"/>
<path d="M10.4632 11.1341H10.4692" stroke="#1B1A1F" stroke-linecap="round" stroke-linejoin="round"/>
<path d="M7.99691 9.13411H8.0029" stroke="#1B1A1F" stroke-linecap="round" stroke-linejoin="round"/>
<path d="M7.99691 11.1341H8.0029" stroke="#1B1A1F" stroke-linecap="round" stroke-linejoin="round"/>
<path d="M5.52962 9.13411H5.53561" stroke="#1B1A1F" stroke-linecap="round" stroke-linejoin="round"/>
<path d="M5.52962 11.1341H5.53561" stroke="#1B1A1F" stroke-linecap="round" stroke-linejoin="round"/>
</svg>
