<svg width="16" height="16" viewBox="0 0 16 16" fill="none" xmlns="http://www.w3.org/2000/svg">
<path d="M13.0746 4.01669C12.7815 3.69436 12.4333 3.43867 12.0502 3.26424C11.667 3.08979 11.2563 3 10.8415 3C10.4268 3 10.0161 3.08979 9.63289 3.26424C9.24973 3.43867 8.90159 3.69436 8.60836 4.01669C8.28195 4.37532 7.71774 4.37532 7.39133 4.01669C6.79905 3.36592 5.99576 3.00034 5.15816 3.00034C4.32056 3.00034 3.51728 3.36592 2.925 4.01669C2.33274 4.66744 2 5.55005 2 6.47036C2 7.39066 2.33274 8.27327 2.925 8.92404L3.53353 9.59265L5.78118 12.0622C6.97128 13.3699 9.02841 13.3699 10.2185 12.0622L12.4662 9.59265L13.0746 8.92404C13.368 8.60187 13.6008 8.21935 13.7595 7.79835C13.9183 7.37734 14 6.92607 14 6.47036C14 6.01464 13.9183 5.56339 13.7595 5.14237C13.6008 4.72136 13.368 4.33885 13.0746 4.01669Z" stroke="#F65555" stroke-linecap="round" stroke-linejoin="round"/>
<path d="M5.125 8.18396H6.1875C6.32558 8.18396 6.4375 8.29588 6.4375 8.43396V9.30842C6.4375 9.55491 6.75646 9.65266 6.89458 9.4485L8.85543 6.54985C8.99354 6.34568 9.3125 6.44343 9.3125 6.68992V7.93396C9.3125 8.07202 9.42443 8.18396 9.5625 8.18396H10.875" stroke="#F65555" stroke-linecap="round" stroke-linejoin="round"/>
</svg>
