<svg width="14" height="13" viewBox="0 0 14 13" fill="none" xmlns="http://www.w3.org/2000/svg">
<path d="M2.68818 2.18718C2.90706 1.96787 3.18212 1.81309 3.48318 1.73982C3.78424 1.66656 4.09967 1.67764 4.39485 1.77185C4.47608 1.4509 4.6499 1.16093 4.89468 0.938022C5.13945 0.71511 5.44437 0.569097 5.77149 0.518153C6.09861 0.467209 6.43349 0.513583 6.73446 0.651504C7.03543 0.789426 7.28919 1.01281 7.46418 1.29385C7.52907 1.18718 7.60818 1.08718 7.70151 0.993846C7.93142 0.763879 8.22285 0.605213 8.54078 0.536923C8.85871 0.468634 9.18959 0.493628 9.49365 0.608901C9.79771 0.724173 10.062 0.924818 10.2548 1.18671C10.4475 1.4486 10.5605 1.7606 10.5802 2.08518C10.8932 1.94162 11.2427 1.89731 11.5816 1.95821C11.9205 2.01911 12.2327 2.1823 12.4762 2.42585L12.7148 2.66451C13.6375 3.58785 12.2482 6.47318 9.61151 9.11051C6.97418 11.7472 4.08885 13.1372 3.16551 12.2138L2.92685 11.9752L2.85085 11.8938C2.63602 11.6491 2.49664 11.3473 2.44956 11.0251C2.40248 10.7028 2.44969 10.3738 2.58551 10.0778C2.22842 10.0559 1.88753 9.92116 1.61202 9.69294C1.33651 9.46472 1.14063 9.15486 1.05266 8.80809C0.964684 8.46132 0.989163 8.09556 1.12256 7.7636C1.25596 7.43164 1.49138 7.15065 1.79485 6.96118C1.51402 6.78607 1.29087 6.53228 1.15314 6.23136C1.0154 5.93043 0.969164 5.59567 1.02017 5.26868C1.07118 4.94169 1.21718 4.6369 1.44001 4.39223C1.66285 4.14755 1.9527 3.97378 2.27351 3.89251C2.17948 3.59758 2.16843 3.28246 2.24157 2.98166C2.31471 2.68087 2.46922 2.40601 2.68818 2.18718Z" stroke="black" stroke-linecap="round" stroke-linejoin="round"/>
</svg>
