<svg width="40" height="40" viewBox="0 0 40 40" fill="none" xmlns="http://www.w3.org/2000/svg">
<g clip-path="url(#clip0_433_7492)">
<rect width="40" height="40" rx="20" fill="#22577A"/>
<g clip-path="url(#clip1_433_7492)">
<path d="M19.9992 24.1673C17.7017 24.1673 15.8325 22.2982 15.8325 20.0007C15.8325 17.7032 17.7017 15.834 19.9992 15.834C22.2967 15.834 24.1659 17.7032 24.1659 20.0007C24.1659 22.2982 22.2967 24.1673 19.9992 24.1673ZM19.9992 17.084C18.3909 17.084 17.0825 18.3923 17.0825 20.0007C17.0825 21.609 18.3909 22.9173 19.9992 22.9173C21.6075 22.9173 22.9159 21.609 22.9159 20.0007C22.9159 18.3923 21.6075 17.084 19.9992 17.084Z" fill="white"/>
<path d="M20.0008 28.3327C15.4058 28.3327 11.6675 24.5943 11.6675 19.9993C11.6675 15.4043 15.4058 11.666 20.0008 11.666C24.5958 11.666 28.3341 15.4043 28.3341 19.9993C28.3341 24.5943 24.5958 28.3327 20.0008 28.3327ZM20.0008 12.916C16.095 12.916 12.9175 16.0935 12.9175 19.9993C12.9175 23.9052 16.095 27.0827 20.0008 27.0827C23.9066 27.0827 27.0841 23.9052 27.0841 19.9993C27.0841 16.0935 23.9066 12.916 20.0008 12.916Z" fill="white"/>
<path d="M20 14.1667C19.8342 14.1667 19.6753 14.1008 19.5581 13.9836C19.4408 13.8664 19.375 13.7074 19.375 13.5417V10.625C19.375 10.4592 19.4408 10.3003 19.5581 10.1831C19.6753 10.0658 19.8342 10 20 10C20.1658 10 20.3247 10.0658 20.4419 10.1831C20.5592 10.3003 20.625 10.4592 20.625 10.625V13.5417C20.625 13.7074 20.5592 13.8664 20.4419 13.9836C20.3247 14.1008 20.1658 14.1667 20 14.1667ZM20 30C19.8342 30 19.6753 29.9342 19.5581 29.8169C19.4408 29.6997 19.375 29.5408 19.375 29.375V26.4583C19.375 26.2926 19.4408 26.1336 19.5581 26.0164C19.6753 25.8992 19.8342 25.8333 20 25.8333C20.1658 25.8333 20.3247 25.8992 20.4419 26.0164C20.5592 26.1336 20.625 26.2926 20.625 26.4583V29.375C20.625 29.5408 20.5592 29.6997 20.4419 29.8169C20.3247 29.9342 20.1658 30 20 30ZM13.5417 20.625H10.625C10.4592 20.625 10.3003 20.5592 10.1831 20.4419C10.0658 20.3247 10 20.1658 10 20C10 19.8342 10.0658 19.6753 10.1831 19.5581C10.3003 19.4408 10.4592 19.375 10.625 19.375H13.5417C13.7074 19.375 13.8664 19.4408 13.9836 19.5581C14.1008 19.6753 14.1667 19.8342 14.1667 20C14.1667 20.1658 14.1008 20.3247 13.9836 20.4419C13.8664 20.5592 13.7074 20.625 13.5417 20.625ZM29.375 20.625H26.4583C26.2926 20.625 26.1336 20.5592 26.0164 20.4419C25.8992 20.3247 25.8333 20.1658 25.8333 20C25.8333 19.8342 25.8992 19.6753 26.0164 19.5581C26.1336 19.4408 26.2926 19.375 26.4583 19.375H29.375C29.5408 19.375 29.6997 19.4408 29.8169 19.5581C29.9342 19.6753 30 19.8342 30 20C30 20.1658 29.9342 20.3247 29.8169 20.4419C29.6997 20.5592 29.5408 20.625 29.375 20.625Z" fill="white"/>
</g>
<path d="M20 -8.74228e-07C31.0457 -1.35705e-06 40 8.9543 40 20C40 31.0457 31.0457 40 20 40C8.9543 40 -3.91405e-07 31.0457 -8.74228e-07 20C-1.35705e-06 8.95431 8.9543 -3.91405e-07 20 -8.74228e-07ZM20 36.4C29.0575 36.4 36.4 29.0575 36.4 20C36.4 10.9425 29.0575 3.6 20 3.6C10.9425 3.6 3.6 10.9425 3.6 20C3.6 29.0575 10.9425 36.4 20 36.4Z" fill="white"/>
<path d="M20 1.8C20 0.805888 20.8075 -0.00840469 21.7976 0.0809431C24.1142 0.290004 26.3813 0.902034 28.4953 1.89394C31.1537 3.14125 33.5048 4.95866 35.3817 7.21705C37.2585 9.47545 38.615 12.1194 39.3549 14.9612C40.0947 17.8029 40.1996 20.7727 39.6623 23.6596C39.125 26.5465 37.9586 29.2797 36.2459 31.665C34.5332 34.0503 32.3162 36.0291 29.7526 37.461C27.1889 38.8929 24.3413 39.7427 21.4122 39.9501C19.0828 40.115 16.7473 39.8703 14.5107 39.2319C13.5547 38.9591 13.0943 37.9088 13.4519 36.9812C13.8096 36.0537 14.85 35.6021 15.8111 35.856C17.5497 36.3153 19.3561 36.4866 21.158 36.3591C23.5599 36.189 25.8949 35.4922 27.9971 34.318C30.0993 33.1439 31.9172 31.5212 33.3216 29.5653C34.726 27.6093 35.6825 25.3682 36.1231 23.0009C36.5637 20.6336 36.4776 18.1984 35.871 15.8682C35.2643 13.5379 34.152 11.3699 32.613 9.51798C31.074 7.6661 29.1461 6.17583 26.9662 5.15303C25.3308 4.38574 23.5838 3.89565 21.7964 3.69868C20.8083 3.58979 20 2.79411 20 1.8Z" fill="#D1EDFF"/>
</g>
<defs>
<clipPath id="clip0_433_7492">
<rect width="40" height="40" rx="20" fill="white"/>
</clipPath>
<clipPath id="clip1_433_7492">
<rect width="20" height="20" fill="white" transform="translate(10 10)"/>
</clipPath>
</defs>
</svg>
