<svg width="32" height="32" viewBox="0 0 32 32" fill="none" xmlns="http://www.w3.org/2000/svg">
<g clip-path="url(#clip0_612_19830)">
<rect width="32" height="32" rx="16" fill="#FC6F72"/>
<path d="M15.5 -4C26.2696 -4 35 4.73045 35 15.5C35 26.2696 26.2696 35 15.5 35C4.73045 35 -4 26.2696 -4 15.5C-4 4.73045 4.73045 -4 15.5 -4ZM15.5 31.49C24.331 31.49 31.49 24.331 31.49 15.5C31.49 6.66896 24.331 -0.489999 15.5 -0.489999C6.66897 -0.489998 -0.490001 6.66897 -0.490001 15.5C-0.49 24.331 6.66897 31.49 15.5 31.49Z" fill="#F7F6F9"/>
<path d="M15.5 -2.245C15.5 -3.21426 16.2873 -4.00819 17.2526 -3.92108C19.4259 -3.72496 21.555 -3.16504 23.55 -2.26082C26.079 -1.11459 28.334 0.558486 30.1641 2.64649C31.9943 4.73449 33.3575 7.18926 34.1625 9.84657C34.9675 12.5039 35.1957 15.3025 34.8319 18.0551C34.468 20.8077 33.5206 23.4509 32.0529 25.8079C30.5852 28.1648 28.631 30.1811 26.3212 31.7219C24.0114 33.2627 21.3992 34.2925 18.6593 34.7424C16.4979 35.0972 14.2964 35.0848 12.1468 34.7095C11.192 34.5429 10.638 33.5716 10.8898 32.6357C11.1416 31.6997 12.1042 31.1553 13.0621 31.3031C14.7254 31.5597 16.4226 31.5526 18.0906 31.2787C20.3373 30.9099 22.4794 30.0654 24.3734 28.802C26.2674 27.5385 27.8698 25.8851 29.0734 23.9524C30.2769 22.0198 31.0538 19.8523 31.3521 17.5952C31.6505 15.338 31.4633 13.0432 30.8032 10.8642C30.1431 8.68519 29.0253 6.67228 27.5246 4.96012C26.0238 3.24796 24.1747 1.87604 22.101 0.936126C20.5614 0.238311 18.9244 -0.209431 17.2515 -0.393784C16.2881 -0.499954 15.5 -1.27574 15.5 -2.245Z" fill="white"/>
<path d="M21.0746 12.0167C20.7815 11.6944 20.4333 11.4387 20.0502 11.2642C19.667 11.0898 19.2563 11 18.8415 11C18.4268 11 18.0161 11.0898 17.6329 11.2642C17.2497 11.4387 16.9016 11.6944 16.6084 12.0167C16.282 12.3753 15.7177 12.3753 15.3913 12.0167C14.7991 11.3659 13.9958 11.0003 13.1582 11.0003C12.3206 11.0003 11.5173 11.3659 10.925 12.0167C10.3327 12.6674 10 13.55 10 14.4704C10 15.3907 10.3327 16.2733 10.925 16.924L11.5335 17.5926L13.7812 20.0622C14.9713 21.3699 17.0284 21.3699 18.2185 20.0622L20.4662 17.5926L21.0746 16.924C21.368 16.6019 21.6008 16.2193 21.7595 15.7983C21.9183 15.3773 22 14.9261 22 14.4704C22 14.0146 21.9183 13.5634 21.7595 13.1424C21.6008 12.7214 21.368 12.3388 21.0746 12.0167Z" stroke="white" stroke-linecap="round" stroke-linejoin="round"/>
<path d="M13.125 16.1849H14.1875C14.3256 16.1849 14.4375 16.2969 14.4375 16.4349V17.3094C14.4375 17.5559 14.7565 17.6536 14.8946 17.4495L16.8554 14.5508C16.9935 14.3467 17.3125 14.4444 17.3125 14.6909V15.9349C17.3125 16.073 17.4244 16.1849 17.5625 16.1849H18.875" stroke="white" stroke-linecap="round" stroke-linejoin="round"/>
</g>
<defs>
<clipPath id="clip0_612_19830">
<rect width="32" height="32" rx="16" fill="white"/>
</clipPath>
</defs>
</svg>
