<svg width="32" height="32" viewBox="0 0 32 32" fill="none" xmlns="http://www.w3.org/2000/svg">
<g clip-path="url(#clip0_612_19972)">
<rect width="32" height="32" rx="16" fill="#5390D9"/>
<path d="M15.5 -4C26.2696 -4 35 4.73045 35 15.5C35 26.2696 26.2696 35 15.5 35C4.73045 35 -4 26.2696 -4 15.5C-4 4.73045 4.73045 -4 15.5 -4ZM15.5 31.49C24.331 31.49 31.49 24.331 31.49 15.5C31.49 6.66896 24.331 -0.489999 15.5 -0.489999C6.66897 -0.489998 -0.490001 6.66897 -0.490001 15.5C-0.49 24.331 6.66897 31.49 15.5 31.49Z" fill="#F7F6F9"/>
<path d="M15.5 -2.245C15.5 -3.21426 16.2873 -4.00819 17.2527 -3.92108C19.4259 -3.72496 21.5551 -3.16505 23.55 -2.26082C26.079 -1.11459 28.334 0.558489 30.1641 2.64649C31.9943 4.73449 33.3575 7.18926 34.1625 9.84657C34.9675 12.5039 35.1957 15.3025 34.8319 18.0551C34.4681 20.8077 33.5206 23.4509 32.0529 25.8079C30.5852 28.1648 28.631 30.1811 26.3212 31.7219C24.0114 33.2627 21.3992 34.2925 18.6593 34.7424C16.4979 35.0972 14.2964 35.0848 12.1468 34.7095C11.192 34.5429 10.638 33.5716 10.8898 32.6357C11.1416 31.6997 12.1042 31.1553 13.0621 31.3031C14.7255 31.5597 16.4226 31.5526 18.0906 31.2787C20.3373 30.9099 22.4794 30.0654 24.3734 28.802C26.2675 27.5385 27.8698 25.8851 29.0734 23.9524C30.2769 22.0198 31.0538 19.8523 31.3521 17.5952C31.6505 15.338 31.4633 13.0432 30.8032 10.8642C30.1432 8.68519 29.0254 6.67228 27.5246 4.96012C26.0238 3.24796 24.1748 1.87604 22.101 0.936126C20.5614 0.238311 18.9244 -0.209432 17.2515 -0.393784C16.2881 -0.499955 15.5 -1.27574 15.5 -2.245Z" fill="white"/>
<path d="M16.3733 12.4003C16.8318 11.6678 17.1569 10.8597 17.3333 10.0137C17.6667 11.6803 18.6667 13.2803 20 14.347C21.3333 15.4137 22 16.6803 22 18.0137C22.0038 18.9352 21.7339 19.8371 21.2245 20.6051C20.7151 21.373 19.9892 21.9724 19.1388 22.3273C18.2883 22.6822 17.3516 22.7766 16.4474 22.5985C15.5433 22.4204 14.7124 21.9779 14.06 21.327M12.6667 18.867C14.1333 18.867 15.3333 17.647 15.3333 16.167C15.3333 15.3937 14.9533 14.6603 14.1933 14.0403C13.4333 13.4203 12.86 12.5003 12.6667 11.5337C12.4733 12.5003 11.9067 13.427 11.14 14.0403C10.3733 14.6537 10 15.4003 10 16.167C10 17.647 11.2 18.867 12.6667 18.867Z" stroke="white" stroke-linecap="round" stroke-linejoin="round"/>
</g>
<defs>
<clipPath id="clip0_612_19972">
<rect width="32" height="32" rx="16" fill="white"/>
</clipPath>
</defs>
</svg>
