<svg width="24" height="24" viewBox="0 0 24 24" fill="none" xmlns="http://www.w3.org/2000/svg">
<path fill-rule="evenodd" clip-rule="evenodd" d="M13.2711 20.66C12.3262 21.2005 11.374 21.6024 10.4888 21.8398C10.4329 21.8548 10.374 21.8548 10.3181 21.8398C8.33629 21.3081 6.01704 19.9477 4.1952 18.0638C2.35859 16.1647 1.03125 13.7365 1.03125 11.1022V3.20127C1.03125 3.11841 1.06248 3.0386 1.11871 2.97774C1.17494 2.91687 1.25204 2.87944 1.33464 2.87289C3.79694 2.67769 5.94165 1.59737 7.5632 0.439294C7.61908 0.399392 7.68602 0.377938 7.75468 0.37793H13.0523C13.1209 0.37793 13.1879 0.399389 13.2437 0.439294C14.8653 1.59737 17.01 2.67769 19.4723 2.87289C19.5549 2.87945 19.632 2.91689 19.6882 2.97775C19.7445 3.03861 19.7757 3.11842 19.7757 3.20127V11.1022C19.7757 11.9895 19.6256 12.8531 19.3561 13.6811C21.4458 14.3108 22.9697 16.2516 22.9697 18.5455C22.9697 21.3489 20.6937 23.625 17.8902 23.625C15.8412 23.625 14.0739 22.4091 13.2711 20.66ZM18.7114 13.5322C18.9711 12.7529 19.1168 11.939 19.1168 11.1022V3.50127C16.695 3.24009 14.5761 2.18447 12.9473 1.03675H7.85967C6.23083 2.18447 4.112 3.24009 1.69007 3.50127V11.1022C1.69007 13.5664 2.95073 15.8292 4.6688 17.6058C6.37553 19.3707 8.5376 20.6585 10.4035 21.1801C11.243 20.9455 12.1425 20.5552 13.0335 20.0366C12.9689 19.8261 12.9181 19.6117 12.8816 19.3946C12.0979 19.8644 11.2905 20.2347 10.5019 20.4815C10.4378 20.5016 10.3692 20.5016 10.3051 20.4815C8.04626 19.7745 5.63285 18.0493 4.06461 15.89C3.00476 14.4307 2.33167 12.7743 2.33167 11.1022V4.34071C2.33167 4.26357 2.35873 4.18889 2.40815 4.12966C2.45756 4.07044 2.52619 4.03043 2.60207 4.01661C4.5336 3.66466 6.35036 2.83901 7.97798 1.73628C8.03251 1.69934 8.09687 1.67959 8.16273 1.67958H12.6454C12.7113 1.67958 12.7757 1.69934 12.8303 1.73633C14.4567 2.83901 16.2734 3.66466 18.2049 4.01661C18.2808 4.03044 18.3494 4.07045 18.3988 4.12968C18.4482 4.1889 18.4753 4.26358 18.4753 4.34071V11.1022C18.4753 11.9014 18.322 12.6966 18.0461 13.4684C18.2719 13.4752 18.494 13.4968 18.7114 13.5322ZM12.8121 18.6634C12.8112 18.6242 12.8108 18.5849 12.8108 18.5455C12.8108 15.9309 14.7905 13.7751 17.3315 13.4965C17.6403 12.7191 17.8164 11.9132 17.8164 11.1022V4.61242C15.9288 4.22569 14.149 3.41275 12.5448 2.3384H8.26334C6.65803 3.41275 4.87817 4.22569 2.9905 4.61242V11.1022C2.9905 12.6407 3.6225 14.1601 4.5977 15.5029C6.05934 17.5154 8.29403 19.1333 10.4035 19.8213C11.2047 19.5599 12.0239 19.1639 12.8121 18.6634ZM17.8902 14.1249C15.4504 14.1249 13.4696 16.1057 13.4696 18.5455C13.4696 20.9854 15.4504 22.9662 17.8902 22.9662C20.33 22.9662 22.3109 20.9854 22.3109 18.5455C22.3109 16.1057 20.33 14.1249 17.8902 14.1249ZM14.2211 18.7121C14.2378 18.6446 14.2754 18.5841 14.3286 18.5392C14.3818 18.4944 14.4478 18.4676 14.5171 18.4625L14.5189 18.4624C14.5767 18.4585 14.6345 18.4699 14.6865 18.4956C14.7189 18.5115 14.7484 18.5326 14.7739 18.5582L15.7249 19.5092C15.8535 19.6377 15.8535 19.8465 15.7249 19.9751C15.5963 20.1036 15.3876 20.1036 15.2591 19.9751L15.1777 19.8937C15.6741 20.8896 16.7028 21.5743 17.8902 21.5743C18.8574 21.5743 19.7193 21.1198 20.274 20.4132C20.3279 20.3445 20.407 20.3 20.4937 20.2896C20.5804 20.2791 20.6677 20.3035 20.7365 20.3575C20.8052 20.4114 20.8496 20.4904 20.8601 20.5772C20.8705 20.6639 20.8461 20.7512 20.7922 20.82C20.1169 21.6802 19.0676 22.2331 17.8902 22.2331C16.4024 22.2331 15.1193 21.35 14.5367 20.0799L14.511 20.1755C14.464 20.3511 14.2832 20.4555 14.1076 20.4084C13.932 20.3614 13.8276 20.1806 13.8746 20.0049L14.2211 18.7121ZM21.2438 17.0112L21.2694 16.9156C21.3165 16.74 21.4972 16.6356 21.6728 16.6826C21.8485 16.7297 21.9529 16.9105 21.9058 17.0861L21.5593 18.379C21.5427 18.4465 21.5051 18.507 21.4519 18.5519C21.3987 18.5967 21.3327 18.6235 21.2633 18.6285L21.2615 18.6287C21.2146 18.6318 21.1677 18.6249 21.1237 18.6084C21.0797 18.5918 21.0398 18.5661 21.0066 18.5329L20.0555 17.5819C19.927 17.4533 19.927 17.2446 20.0555 17.116C20.1841 16.9874 20.3929 16.9874 20.5214 17.116L20.6027 17.1973C20.1064 16.2015 19.0776 15.5168 17.8902 15.5168C16.9231 15.5168 16.0612 15.9712 15.5065 16.6779C15.4525 16.7466 15.3735 16.791 15.2868 16.8015C15.2 16.8119 15.1127 16.7875 15.044 16.7336C14.9753 16.6796 14.9308 16.6006 14.9204 16.5139C14.9099 16.4272 14.9343 16.3398 14.9882 16.2711C15.6635 15.4109 16.7129 14.858 17.8902 14.858C19.378 14.858 20.6611 15.741 21.2438 17.0112ZM18.0436 18.9905C17.9943 19.0075 17.9424 19.0162 17.8902 19.0161C17.6305 19.0161 17.4196 18.8053 17.4196 18.5455C17.4196 18.4782 17.434 18.4116 17.462 18.3503C17.4899 18.289 17.5308 18.2345 17.5817 18.1904C17.5678 18.1534 17.5608 18.1143 17.5608 18.0749V16.5942C17.5608 16.4124 17.7084 16.2648 17.8902 16.2648C18.0721 16.2648 18.2196 16.4124 18.2196 16.5942V18.0749C18.2196 18.1155 18.2123 18.1544 18.1988 18.1904C18.2782 18.2593 18.3322 18.3527 18.3523 18.4559C18.3911 18.4624 18.4284 18.4758 18.4625 18.4955L19.3709 19.02C19.4465 19.0637 19.5017 19.1357 19.5243 19.22C19.5469 19.3044 19.5351 19.3943 19.4914 19.47C19.4477 19.5456 19.3758 19.6008 19.2914 19.6234C19.207 19.646 19.1171 19.6342 19.0415 19.5905L18.1331 19.0661C18.099 19.0465 18.0687 19.0208 18.0436 18.9905ZM8.31083 8.13816V5.41412C8.31083 5.32675 8.34553 5.24297 8.40731 5.18119C8.46909 5.11941 8.55287 5.08471 8.64024 5.08471H12.1667C12.2541 5.08471 12.3379 5.11941 12.3997 5.18119C12.4614 5.24297 12.4961 5.32675 12.4961 5.41412V8.13816H15.2201C15.3075 8.13816 15.3913 8.17287 15.4531 8.23465C15.5149 8.29642 15.5496 8.38021 15.5496 8.46758V11.994C15.5496 12.0814 15.5149 12.1652 15.4531 12.227C15.3913 12.2887 15.3075 12.3234 15.2201 12.3234H12.4961V15.0475C12.4961 15.1348 12.4614 15.2186 12.3997 15.2804C12.3379 15.3422 12.2541 15.3769 12.1667 15.3769H8.64024C8.55287 15.3769 8.46909 15.3422 8.40731 15.2804C8.34553 15.2186 8.31083 15.1348 8.31083 15.0475V12.3234H5.58683C5.49946 12.3234 5.41567 12.2887 5.3539 12.227C5.29212 12.1652 5.25741 12.0814 5.25741 11.994V8.46758C5.25741 8.38021 5.29212 8.29642 5.3539 8.23465C5.41567 8.17287 5.49946 8.13816 5.58683 8.13816H8.31083ZM8.64024 8.79699H5.91624V11.6646H8.64024C8.7276 11.6646 8.81139 11.6993 8.87317 11.7611C8.93494 11.8229 8.96965 11.9067 8.96965 11.994V14.7181H11.8373V11.994C11.8373 11.9067 11.872 11.8229 11.9338 11.7611C11.9956 11.6993 12.0794 11.6646 12.1667 11.6646H14.8907V8.79699H12.1667C12.0794 8.79699 11.9956 8.76228 11.9338 8.70051C11.872 8.63873 11.8373 8.55494 11.8373 8.46758V5.74353H8.96965V8.46758C8.96965 8.55494 8.93494 8.63873 8.87317 8.70051C8.81139 8.76228 8.7276 8.79699 8.64024 8.79699Z" fill="white"/>
</svg>
