<svg width="16" height="17" viewBox="0 0 16 17" fill="none" xmlns="http://www.w3.org/2000/svg">
<g clip-path="url(#clip0_1479_48792)">
<path d="M2.19329 5.20071C2.30886 4.02044 2.89048 3.00247 3.64051 2.66758C3.81577 2.58938 4.02119 2.66802 4.09939 2.8432C4.17762 3.01842 4.09898 3.22388 3.92377 3.30211C3.48394 3.49847 2.98586 4.23695 2.88484 5.26844C2.86729 5.44791 2.7161 5.58205 2.53949 5.58205C2.52815 5.58205 2.51674 5.58147 2.50522 5.58037C2.31424 5.56165 2.1746 5.39169 2.19329 5.20071ZM2.85994 12.3295C2.85994 12.5214 2.70439 12.6769 2.5125 12.6769H1.08079C0.976116 12.6769 0.877041 12.6297 0.811063 12.5484C0.745086 12.4672 0.719266 12.3605 0.740771 12.2581C0.906262 11.4699 1.24833 10.8027 1.73964 10.302C0.87214 9.67143 0.264046 8.67852 0.00741522 7.45666C-0.0140895 7.35418 0.0117308 7.2475 0.0777079 7.16627C0.143685 7.08497 0.24276 7.03779 0.347432 7.03779H0.573012C0.509339 6.56169 0.503633 6.05084 0.556262 5.51352C0.762788 3.40401 1.78126 1.59311 3.0913 1.00451C3.62972 0.743306 4.2711 0.743306 4.80948 1.00454C6.11955 1.59315 7.13792 3.40401 7.34444 5.51352C7.39707 6.05084 7.39133 6.56169 7.32766 7.03779H7.55335C7.65802 7.03779 7.75713 7.08501 7.82311 7.16627C7.88909 7.24757 7.91491 7.35426 7.89336 7.4567C7.81488 7.83014 7.70308 8.18577 7.56103 8.51368C7.48477 8.68974 7.28019 8.77057 7.10413 8.69443C6.92803 8.61813 6.84713 8.41358 6.92338 8.23752C6.99294 8.07682 7.05431 7.90804 7.10694 7.73264H6.92214C6.91735 7.73271 6.91263 7.73271 6.90784 7.73264H0.992793C0.988039 7.73271 0.983248 7.73271 0.978493 7.73264H0.794094C1.09622 8.73524 1.68607 9.51453 2.48342 9.9526C2.58678 10.0094 2.65429 10.1148 2.66267 10.2324C2.67104 10.3501 2.61918 10.4639 2.5249 10.5348C2.07118 10.8759 1.73284 11.3711 1.53257 11.982H2.51253C2.70439 11.982 2.85994 12.1376 2.85994 12.3295ZM1.27495 7.03779H6.62565C6.69451 6.58945 6.70373 6.10084 6.65286 5.58125C6.47244 3.73854 5.59569 2.11646 4.5207 1.63663C4.51697 1.63498 4.51332 1.63327 4.50966 1.63147C4.16467 1.46273 3.736 1.46269 3.39097 1.63147C3.38732 1.63327 3.38366 1.63498 3.37997 1.63663C2.30502 2.11643 1.42823 3.73854 1.24781 5.58125C1.19694 6.10084 1.20612 6.58941 1.27495 7.03779ZM15.903 6.26713C15.9908 6.36135 16.0193 6.49637 15.977 6.61801C15.5527 7.83965 14.4367 8.77836 13.0644 9.06787C12.7726 9.12938 12.4797 9.15941 12.1906 9.15941C11.1842 9.15941 10.2258 8.79573 9.53797 8.13304L8.93923 8.78524C8.80951 8.92659 8.58978 8.93602 8.44832 8.80623C8.307 8.67647 8.29757 8.45667 8.42736 8.31531L9.0514 7.6355C8.62562 5.92664 9.15121 4.01609 10.4481 2.60314C11.794 1.13705 13.7446 0.452553 15.5386 0.817219C15.6648 0.84282 15.7664 0.936154 15.8028 1.0597C16.2408 2.54941 15.9367 4.21559 15.0132 5.58176C15.3491 5.76503 15.6518 5.99759 15.903 6.26713ZM13.9463 5.81418C14.0375 5.71478 14.1244 5.6127 14.2069 5.50814C14.2103 5.50368 14.2137 5.49933 14.2172 5.49508C15.1483 4.30772 15.5125 2.81102 15.1908 1.46134C13.6925 1.23711 12.0893 1.84294 10.9601 3.0731C9.93917 4.18527 9.45988 5.63995 9.63689 6.99775L10.5394 6.01467L10.3313 5.0662C10.2902 4.87876 10.4088 4.69352 10.5963 4.65241C10.7838 4.6112 10.9689 4.72991 11.0101 4.91735L11.1136 5.38913L12.1254 4.2868L11.9174 3.33839C11.8763 3.15096 11.9949 2.96568 12.1824 2.92457C12.3698 2.88347 12.555 3.00207 12.5961 3.18951L12.6996 3.66129L13.3842 2.91554C13.5139 2.7743 13.7337 2.76475 13.8751 2.89458C14.0164 3.02434 14.0259 3.24415 13.8961 3.3855L13.2115 4.13122L13.6905 4.19408C13.8808 4.21903 14.0148 4.39348 13.9898 4.58373C13.9649 4.77398 13.7905 4.90831 13.6002 4.88304L12.6374 4.75676L11.6255 5.85909L12.1044 5.92192C12.2947 5.94687 12.4287 6.12132 12.4037 6.31157C12.3788 6.50182 12.2045 6.63615 12.0141 6.61088L11.0513 6.48463L10.1488 7.46771C11.5184 7.52871 12.9253 6.92647 13.9463 5.81418ZM15.2421 6.59007C15.0494 6.41445 14.827 6.26282 14.5848 6.14176C14.5434 6.18975 14.5012 6.23718 14.4582 6.2841C13.4574 7.3743 12.1219 8.0322 10.7654 8.14803C11.4023 8.45477 12.1651 8.54748 12.9209 8.38795C13.9788 8.16478 14.8493 7.485 15.2421 6.59007ZM13.5087 12.2195C13.6889 12.6723 13.6738 13.205 13.4681 13.6468C12.7947 15.1924 9.10586 16.1538 7.81528 16.2584C7.64942 16.2718 7.48613 16.2785 7.32641 16.2785C5.77343 16.2786 4.52487 15.6491 3.856 14.5117C3.18269 13.3667 3.22417 11.913 3.96162 10.8083C4.76962 9.59788 6.24664 9.04428 8.01409 9.29001C9.29655 9.46816 12.9246 10.638 13.5087 12.2195ZM12.8619 12.4735C12.8605 12.47 12.8592 12.4666 12.858 12.4631C12.6803 11.9761 11.9191 11.3974 10.7698 10.8754C9.67811 10.3795 8.52655 10.0628 7.91856 9.97838C7.65667 9.94199 7.41265 9.92543 7.18557 9.92543C5.64008 9.92543 4.87484 10.692 4.53965 11.1941C3.94915 12.0788 3.91594 13.2427 4.45506 14.1595C4.80608 14.7564 5.70229 15.7329 7.75914 15.5658C8.37097 15.5163 9.53877 15.2657 10.6569 14.8329C11.8341 14.3772 12.627 13.8428 12.8322 13.3667C12.8337 13.3633 12.8352 13.3599 12.8367 13.3566C12.963 13.0876 12.9727 12.7492 12.8619 12.4735ZM9.92823 12.3578C10.0629 12.6588 10.0528 13.0118 9.90124 13.3047C9.5847 13.9552 8.67931 14.4398 7.64562 14.5113C7.56161 14.5171 7.47892 14.5199 7.39795 14.5199C6.51717 14.52 5.82006 14.1798 5.46307 13.5672C5.14767 13.0259 5.16654 12.3652 5.51226 11.8428C5.93958 11.1972 6.75354 10.8992 7.74503 11.0248C8.77286 11.1551 9.64915 11.6904 9.92823 12.3578ZM9.29304 12.6396C9.29136 12.6359 9.28975 12.6322 9.28821 12.6284C9.13504 12.2574 8.52578 11.8242 7.65765 11.7141C7.53791 11.6989 7.4222 11.6914 7.31142 11.6914C6.75639 11.6914 6.32165 11.879 6.09176 12.2263C5.89306 12.5265 5.88223 12.9063 6.06349 13.2174C6.31507 13.6491 6.87405 13.8682 7.59767 13.818C8.47074 13.7577 9.10366 13.3599 9.27764 12.9982C9.27943 12.9945 9.28126 12.9909 9.28309 12.9873C9.33861 12.8815 9.34241 12.7483 9.29304 12.6396Z" fill="#3D3D3D"/>
</g>
<defs>
<clipPath id="clip0_1479_48792">
<rect width="16" height="16" fill="white" transform="translate(0 0.5)"/>
</clipPath>
</defs>
</svg>
