<svg width="16" height="17" viewBox="0 0 16 17" fill="none" xmlns="http://www.w3.org/2000/svg">
<path d="M2.7185 14.5091C3.43838 15.229 4.38381 15.5886 5.32926 15.5886C6.27471 15.5886 7.22075 15.2284 7.94002 14.5091L13.2821 9.16696C14.7219 7.72719 14.7219 5.38456 13.2821 3.94485C11.8435 2.50565 9.50031 2.50508 8.06002 3.94485L2.7185 9.28739C1.27873 10.7272 1.27873 13.0699 2.7185 14.5091ZM8.70322 4.58805C9.24584 4.04543 9.95834 3.7744 10.6714 3.7744C11.3844 3.7744 12.0969 4.046 12.6395 4.58805C13.7247 5.67327 13.7247 7.43925 12.6395 8.52434L10.2896 10.8743L6.35326 6.93801L8.70322 4.58805ZM3.36112 9.93016L5.71108 7.58019L9.64737 11.5165L7.29741 13.8664C6.21218 14.9517 4.44621 14.9511 3.36112 13.8664C2.27589 12.7812 2.27589 11.0152 3.36112 9.93016Z" fill="#3D3D3D"/>
<path d="M3.84274 13.3848C3.93138 13.4734 4.04786 13.5177 4.16433 13.5177C4.2808 13.5177 4.39729 13.4734 4.48591 13.3848C4.66319 13.2075 4.66319 12.9194 4.48591 12.7421C4.02114 12.2774 4.02114 11.5206 4.48591 11.0557L5.97115 9.5705C6.14843 9.39322 6.14843 9.10516 5.97115 8.92788C5.79387 8.7506 5.50581 8.7506 5.32853 8.92788L3.8433 10.4131C3.4467 10.8097 3.22852 11.3376 3.22852 11.8995C3.22795 12.4609 3.44615 12.9887 3.84274 13.3848Z" fill="#3D3D3D"/>
</svg>
