<svg width="21" height="20" viewBox="0 0 21 20" fill="none" xmlns="http://www.w3.org/2000/svg">
<path d="M18.8332 14.1004V16.6004C18.8341 16.8325 18.7866 17.0622 18.6936 17.2749C18.6006 17.4875 18.4643 17.6784 18.2933 17.8353C18.1222 17.9922 17.9203 18.1116 17.7005 18.186C17.4806 18.2603 17.2477 18.288 17.0165 18.2671C14.4522 17.9884 11.989 17.1122 9.82486 15.7087C7.81139 14.4293 6.10431 12.7222 4.82486 10.7087C3.41651 8.53474 2.54007 6.05957 2.26653 3.48374C2.2457 3.2533 2.27309 3.02104 2.34695 2.80176C2.4208 2.58248 2.53951 2.38098 2.6955 2.21009C2.8515 2.0392 3.04137 1.90266 3.25302 1.80917C3.46468 1.71569 3.69348 1.66729 3.92486 1.66707H6.42486C6.82928 1.66309 7.22136 1.80631 7.528 2.07002C7.83464 2.33373 8.03493 2.69995 8.09153 3.10041C8.19705 3.90046 8.39274 4.68601 8.67486 5.44207C8.78698 5.74034 8.81125 6.0645 8.74478 6.37614C8.67832 6.68778 8.52392 6.97383 8.29986 7.20041L7.24153 8.25874C8.42783 10.345 10.1552 12.0724 12.2415 13.2587L13.2999 12.2004C13.5264 11.9764 13.8125 11.8219 14.1241 11.7555C14.4358 11.689 14.7599 11.7133 15.0582 11.8254C15.8143 12.1075 16.5998 12.3032 17.3999 12.4087C17.8047 12.4658 18.1744 12.6697 18.4386 12.9817C18.7029 13.2936 18.8433 13.6917 18.8332 14.1004Z" fill="#96A5BB"/>
</svg>
