<svg width="80" height="80" viewBox="0 0 80 80" fill="none" xmlns="http://www.w3.org/2000/svg">
<path d="M80 40C80 62.0914 62.0914 80 40 80C17.9086 80 0 62.0914 0 40C0 17.9086 17.9086 0 40 0C62.0914 0 80 17.9086 80 40Z" fill="#E1E1E1"/>
<path d="M14.7692 71.0404C16.9338 60.3876 27.4067 52.3077 40 52.3077C52.5933 52.3077 63.0662 60.3876 65.2308 71.0404C58.3478 76.642 49.5661 80 40 80C30.4339 80 21.6522 76.642 14.7692 71.0404Z" fill="white"/>
<path d="M52.3077 34.6154C52.3077 41.5543 46.6825 47.1795 39.7436 47.1795C32.8046 47.1795 27.1795 41.5543 27.1795 34.6154C27.1795 27.6764 32.8046 22.0513 39.7436 22.0513C46.6825 22.0513 52.3077 27.6764 52.3077 34.6154Z" fill="white"/>
</svg>
