<svg width="16" height="16" viewBox="0 0 16 16" fill="none" xmlns="http://www.w3.org/2000/svg">
<path d="M8.40444 0.187111L8 0L7.59556 0.187111C6.57808 0.65661 5.65071 1.27074 4.84889 2.00602C6.01615 2.55458 7.07973 3.2669 8 4.11644C8.92 3.26697 9.98328 2.55465 11.1502 2.00602C10.3487 1.27081 9.4216 0.656683 8.40444 0.187111ZM6.84356 5.34672C5.29331 3.87043 3.26485 2.87626 1.04978 2.50713L1.99895e-07 2.33206V8.77254C-0.000358644 10.2231 0.482428 11.6402 1.38557 12.8395C2.28872 14.0389 3.57042 14.9649 5.064 15.4973C4.65248 14.3636 4.44335 13.1779 4.44444 11.9847C4.44444 9.50171 5.33422 7.20658 6.84356 5.34672ZM16 2.33286L14.9511 2.50713C9.984 3.33106 6.22222 7.26039 6.22222 11.9847C6.22222 13.2182 6.48 14.3995 6.94844 15.486L7.16178 15.9799C7.44089 15.988 7.72089 16 8 16C10.1217 16 12.1566 15.2385 13.6569 13.8831C15.1571 12.5277 16 10.6894 16 8.77254V2.33286Z" fill="black"/>
</svg>
