<svg width="17" height="16" viewBox="0 0 17 16" fill="none" xmlns="http://www.w3.org/2000/svg">
<g clip-path="url(#clip0_515_19793)">
<path d="M14.7587 7.62789C13.6621 6.1326 12.4133 5.23987 11.4182 5.23987C11.085 5.23987 10.7787 5.37479 10.5324 5.63001C10.3359 5.83366 10.1795 6.11159 10.055 6.44519L9.60904 5.92485V2.08963C9.60904 1.78316 9.11252 1.53516 8.50005 1.53516C7.88759 1.53516 7.39106 1.78316 7.39106 2.08963V5.92485L6.945 6.44524C6.82051 6.1117 6.66406 5.83371 6.46757 5.63011C6.22127 5.37484 5.91502 5.23997 5.58178 5.23997C4.58665 5.23997 3.33792 6.13271 2.24137 7.628C1.15095 9.11473 0.5 10.8235 0.5 12.1988C0.5 13.406 2.21684 14.465 4.17395 14.465C6.2302 14.465 7.33971 13.2974 7.33971 12.1988C7.33971 11.7085 7.49289 9.39038 7.2398 7.67224L8.49995 6.20206L9.76015 7.6723C9.50711 9.38991 9.66024 11.7095 9.66024 12.1988C9.66024 13.2974 10.7698 14.465 12.826 14.465C14.7831 14.465 16.4999 13.406 16.4999 12.1988C16.5 10.8235 15.849 9.11467 14.7587 7.62789ZM6.56161 12.1988C6.56161 12.9202 5.7248 13.6869 4.17395 13.6869C2.49405 13.6869 1.27809 12.798 1.27809 12.1988C1.27809 10.983 1.87277 9.44625 2.86878 8.08806C3.79097 6.83055 4.85593 6.01802 5.58178 6.01802C5.7055 6.01802 5.80598 6.06501 5.9076 6.17042C6.86185 7.15938 6.56161 11.5483 6.56161 12.1988ZM12.826 13.6869C11.2752 13.6869 10.4384 12.9202 10.4384 12.1987C10.4384 11.5703 10.1363 7.16119 11.0923 6.17026C11.194 6.06491 11.2944 6.01791 11.4182 6.01791C12.144 6.01791 13.209 6.83045 14.1312 8.08801C15.1272 9.44619 15.7219 10.9829 15.7219 12.1987C15.7219 12.798 14.506 13.6869 12.826 13.6869Z" fill="white"/>
<path d="M2.88781 10.3576C3.12086 10.3576 3.30979 10.1687 3.30979 9.93566C3.30979 9.7026 3.12086 9.51367 2.88781 9.51367C2.65475 9.51367 2.46582 9.7026 2.46582 9.93566C2.46582 10.1687 2.65475 10.3576 2.88781 10.3576Z" fill="white"/>
<path d="M4.88975 6.85081C4.84867 6.87104 3.87553 7.36316 3.12063 8.80522C3.02098 8.9956 3.09448 9.23068 3.28486 9.33033C3.47601 9.43034 3.71068 9.35575 3.80997 9.1661C4.43545 7.97137 5.21946 7.55623 5.23601 7.54762C5.42716 7.45191 5.50538 7.21973 5.41071 7.02774C5.31573 6.83504 5.08257 6.75562 4.88975 6.85081Z" fill="white"/>
</g>
<defs>
<clipPath id="clip0_515_19793">
<rect width="16" height="16" fill="white" transform="translate(0.5)"/>
</clipPath>
</defs>
</svg>
