<svg width="20" height="21" viewBox="0 0 20 21" fill="none" xmlns="http://www.w3.org/2000/svg">
<path d="M2.5 6.33333V4.66667C2.5 4.22464 2.67559 3.80072 2.98816 3.48816C3.30072 3.17559 3.72464 3 4.16667 3H5.83333M14.1667 3H15.8333C16.2754 3 16.6993 3.17559 17.0118 3.48816C17.3244 3.80072 17.5 4.22464 17.5 4.66667V6.33333M17.5 14.6667V16.3333C17.5 16.7754 17.3244 17.1993 17.0118 17.5118C16.6993 17.8244 16.2754 18 15.8333 18H14.1667M5.83333 18H4.16667C3.72464 18 3.30072 17.8244 2.98816 17.5118C2.67559 17.1993 2.5 16.7754 2.5 16.3333V14.6667M5.83333 10.5H14.1667" stroke="#22577A" stroke-width="2" stroke-linecap="round" stroke-linejoin="round"/>
</svg>
