<svg width="20" height="20" viewBox="0 0 20 20" fill="none" xmlns="http://www.w3.org/2000/svg">
<path d="M13.1001 8.07461C14.8167 9.79128 14.8167 12.5663 13.1001 14.2746C11.3834 15.9913 8.60838 15.9913 6.90005 14.2746C5.18338 12.5579 5.18338 9.78294 6.90005 8.07461C8.60838 6.35794 11.3917 6.35794 13.1001 8.07461Z" stroke="white" stroke-linecap="round" stroke-linejoin="round"/>
<path d="M10 11.1758L8.67505 12.5008" stroke="white" stroke-linecap="round" stroke-linejoin="round"/>
<path d="M15.8917 5.28359C16.0167 5.40859 16.0167 5.61693 15.8917 5.75026C15.7667 5.87526 15.5584 5.87526 15.425 5.75026C15.2917 5.62526 15.3 5.41693 15.425 5.28359C15.55 5.15026 15.7667 5.15026 15.8917 5.28359Z" stroke="white" stroke-miterlimit="10"/>
<path d="M15.8917 5.28359C16.0167 5.40859 16.0167 5.61693 15.8917 5.75026C15.7667 5.87526 15.5584 5.87526 15.425 5.75026C15.2917 5.62526 15.3 5.41693 15.425 5.28359C15.55 5.15026 15.7667 5.15026 15.8917 5.28359Z" stroke="white" stroke-linecap="round" stroke-linejoin="round"/>
<path d="M4.57506 16.6C4.70006 16.725 4.70006 16.9333 4.57506 17.0667C4.45006 17.2 4.24173 17.1917 4.1084 17.0667C3.9834 16.9417 3.9834 16.7333 4.1084 16.6C4.2334 16.4667 4.45006 16.4667 4.57506 16.6Z" stroke="white" stroke-miterlimit="10"/>
<path d="M4.57506 16.6C4.70006 16.725 4.70006 16.9333 4.57506 17.0667C4.45006 17.2 4.24173 17.1917 4.1084 17.0667C3.9834 16.9417 3.9834 16.7333 4.1084 16.6C4.2334 16.4667 4.45006 16.4667 4.57506 16.6Z" stroke="white" stroke-linecap="round" stroke-linejoin="round"/>
<path d="M18.2332 10.9418C18.3582 11.0668 18.3582 11.2751 18.2332 11.4085C18.1082 11.5335 17.8999 11.5335 17.7666 11.4085C17.6332 11.2835 17.6416 11.0751 17.7666 10.9418C17.8916 10.8085 18.1082 10.8085 18.2332 10.9418Z" stroke="white" stroke-miterlimit="10"/>
<path d="M18.2332 10.9418C18.3582 11.0668 18.3582 11.2751 18.2332 11.4085C18.1082 11.5335 17.8999 11.5335 17.7666 11.4085C17.6332 11.2835 17.6416 11.0751 17.7666 10.9418C17.8916 10.8085 18.1082 10.8085 18.2332 10.9418Z" stroke="white" stroke-linecap="round" stroke-linejoin="round"/>
<path d="M2.22499 10.9418C2.34999 11.0668 2.34999 11.2751 2.22499 11.4085C2.09999 11.5418 1.89163 11.5335 1.7583 11.4085C1.6333 11.2835 1.6333 11.0751 1.7583 10.9418C1.89163 10.8085 2.09999 10.8085 2.22499 10.9418Z" stroke="white" stroke-miterlimit="10"/>
<path d="M2.22499 10.9418C2.34999 11.0668 2.34999 11.2751 2.22499 11.4085C2.09999 11.5418 1.89163 11.5335 1.7583 11.4085C1.6333 11.2835 1.6333 11.0751 1.7583 10.9418C1.89163 10.8085 2.09999 10.8085 2.22499 10.9418Z" stroke="white" stroke-linecap="round" stroke-linejoin="round"/>
<path d="M15.8917 16.6C16.0167 16.725 16.0167 16.9333 15.8917 17.0667C15.7667 17.1917 15.5584 17.1917 15.425 17.0667C15.2917 16.9417 15.3 16.7333 15.425 16.6C15.5584 16.4667 15.7667 16.4667 15.8917 16.6Z" stroke="white" stroke-miterlimit="10"/>
<path d="M15.8917 16.6C16.0167 16.725 16.0167 16.9333 15.8917 17.0667C15.7667 17.1917 15.5584 17.1917 15.425 17.0667C15.2917 16.9417 15.3 16.7333 15.425 16.6C15.5584 16.4667 15.7667 16.4667 15.8917 16.6Z" stroke="white" stroke-linecap="round" stroke-linejoin="round"/>
<path d="M4.57506 5.28359C4.70006 5.40859 4.70006 5.61693 4.57506 5.75026C4.45006 5.88359 4.24173 5.87526 4.1084 5.75026C3.9834 5.62526 3.9834 5.41693 4.1084 5.28359C4.2334 5.15026 4.45006 5.15026 4.57506 5.28359Z" stroke="white" stroke-miterlimit="10"/>
<path d="M4.57506 5.28359C4.70006 5.40859 4.70006 5.61693 4.57506 5.75026C4.45006 5.88359 4.24173 5.87526 4.1084 5.75026C3.9834 5.62526 3.9834 5.41693 4.1084 5.28359C4.2334 5.15026 4.45006 5.15026 4.57506 5.28359Z" stroke="white" stroke-linecap="round" stroke-linejoin="round"/>
<path d="M10.2332 2.93284C10.3582 3.05784 10.3582 3.26617 10.2332 3.3995C10.1082 3.53284 9.89991 3.5245 9.76658 3.3995C9.63324 3.2745 9.64158 3.06617 9.76658 2.93284C9.89158 2.7995 10.1082 2.80784 10.2332 2.93284Z" stroke="white" stroke-miterlimit="10"/>
<path d="M10.2332 2.93284C10.3582 3.05784 10.3582 3.26617 10.2332 3.3995C10.1082 3.53284 9.89991 3.5245 9.76658 3.3995C9.63324 3.2745 9.64158 3.06617 9.76658 2.93284C9.89158 2.7995 10.1082 2.80784 10.2332 2.93284Z" stroke="white" stroke-linecap="round" stroke-linejoin="round"/>
</svg>
