<svg width="32" height="32" viewBox="0 0 32 32" fill="none" xmlns="http://www.w3.org/2000/svg">
<g clip-path="url(#clip0_612_19821)">
<rect width="32" height="32" rx="16" fill="black"/>
<path d="M15.5 -4C26.2696 -4 35 4.73045 35 15.5C35 26.2696 26.2696 35 15.5 35C4.73045 35 -4 26.2696 -4 15.5C-4 4.73045 4.73045 -4 15.5 -4ZM15.5 31.49C24.331 31.49 31.49 24.331 31.49 15.5C31.49 6.66896 24.331 -0.489999 15.5 -0.489999C6.66897 -0.489998 -0.490001 6.66897 -0.490001 15.5C-0.49 24.331 6.66897 31.49 15.5 31.49Z" fill="#F7F6F9"/>
<path d="M15.5 -2.245C15.5 -3.21426 16.2873 -4.00819 17.2526 -3.92108C19.4259 -3.72496 21.555 -3.16504 23.55 -2.26082C26.079 -1.11459 28.334 0.558486 30.1641 2.64649C31.9943 4.73449 33.3575 7.18926 34.1625 9.84657C34.9675 12.5039 35.1957 15.3025 34.8319 18.0551C34.468 20.8077 33.5206 23.4509 32.0529 25.8079C30.5852 28.1648 28.631 30.1811 26.3212 31.7219C24.0114 33.2627 21.3992 34.2925 18.6593 34.7424C16.4979 35.0972 14.2964 35.0848 12.1468 34.7095C11.192 34.5429 10.638 33.5716 10.8898 32.6357C11.1416 31.6997 12.1042 31.1553 13.0621 31.3031C14.7254 31.5597 16.4226 31.5526 18.0906 31.2787C20.3373 30.9099 22.4794 30.0654 24.3734 28.802C26.2674 27.5385 27.8698 25.8851 29.0734 23.9524C30.2769 22.0198 31.0538 19.8523 31.3521 17.5952C31.6505 15.338 31.4633 13.0432 30.8032 10.8642C30.1431 8.68519 29.0253 6.67228 27.5246 4.96012C26.0238 3.24796 24.1747 1.87604 22.101 0.936126C20.5614 0.238311 18.9244 -0.209431 17.2515 -0.393784C16.2881 -0.499954 15.5 -1.27574 15.5 -2.245Z" fill="white"/>
<g filter="url(#filter0_d_612_19821)">
<path d="M21 19.3036C19.0888 21.3463 15.8231 21.5179 13.6939 19.6579C11.5875 17.8145 11.4211 14.6646 13.3323 12.622C14.2098 11.6903 15.4186 11.1113 16.7185 11C14.8188 13.0482 14.9967 16.198 17.1374 18.0359C18.073 18.8552 19.3069 19.3036 20.581 19.3036H21Z" fill="white"/>
</g>
</g>
<defs>
<filter id="filter0_d_612_19821" x="-10.5" y="-9.25" width="54" height="54.9512" filterUnits="userSpaceOnUse" color-interpolation-filters="sRGB">
<feFlood flood-opacity="0" result="BackgroundImageFix"/>
<feColorMatrix in="SourceAlpha" type="matrix" values="0 0 0 0 0 0 0 0 0 0 0 0 0 0 0 0 0 0 127 0" result="hardAlpha"/>
<feOffset dy="2.25"/>
<feGaussianBlur stdDeviation="11.25"/>
<feComposite in2="hardAlpha" operator="out"/>
<feColorMatrix type="matrix" values="0 0 0 0 0 0 0 0 0 0 0 0 0 0 0 0 0 0 0.08 0"/>
<feBlend mode="normal" in2="BackgroundImageFix" result="effect1_dropShadow_612_19821"/>
<feBlend mode="normal" in="SourceGraphic" in2="effect1_dropShadow_612_19821" result="shape"/>
</filter>
<clipPath id="clip0_612_19821">
<rect width="32" height="32" rx="16" fill="white"/>
</clipPath>
</defs>
</svg>
