<svg width="32" height="32" viewBox="0 0 32 32" fill="none" xmlns="http://www.w3.org/2000/svg">
<g clip-path="url(#clip0_612_19982)">
<rect width="32" height="32" rx="16" fill="#5390D9"/>
<path d="M15.5 -4C26.2696 -4 35 4.73045 35 15.5C35 26.2696 26.2696 35 15.5 35C4.73045 35 -4 26.2696 -4 15.5C-4 4.73045 4.73045 -4 15.5 -4ZM15.5 31.49C24.331 31.49 31.49 24.331 31.49 15.5C31.49 6.66896 24.331 -0.489999 15.5 -0.489999C6.66897 -0.489998 -0.490001 6.66897 -0.490001 15.5C-0.49 24.331 6.66897 31.49 15.5 31.49Z" fill="#F7F6F9"/>
<path d="M15.5 -2.245C15.5 -3.21426 16.2873 -4.00819 17.2527 -3.92108C19.4259 -3.72496 21.5551 -3.16505 23.55 -2.26082C26.079 -1.11459 28.334 0.558489 30.1641 2.64649C31.9943 4.73449 33.3575 7.18926 34.1625 9.84657C34.9675 12.5039 35.1957 15.3025 34.8319 18.0551C34.4681 20.8077 33.5206 23.4509 32.0529 25.8079C30.5852 28.1648 28.631 30.1811 26.3212 31.7219C24.0114 33.2627 21.3992 34.2925 18.6593 34.7424C16.4979 35.0972 14.2964 35.0848 12.1468 34.7095C11.192 34.5429 10.638 33.5716 10.8898 32.6357C11.1416 31.6997 12.1042 31.1553 13.0621 31.3031C14.7255 31.5597 16.4226 31.5526 18.0906 31.2787C20.3373 30.9099 22.4794 30.0654 24.3734 28.802C26.2675 27.5385 27.8698 25.8851 29.0734 23.9524C30.2769 22.0198 31.0538 19.8523 31.3521 17.5952C31.6505 15.338 31.4633 13.0432 30.8032 10.8642C30.1432 8.68519 29.0254 6.67228 27.5246 4.96012C26.0238 3.24796 24.1748 1.87604 22.101 0.936126C20.5614 0.238311 18.9244 -0.209432 17.2515 -0.393784C16.2881 -0.499955 15.5 -1.27574 15.5 -2.245Z" fill="white"/>
<path d="M14.6016 22.6396C16.2128 22.6396 17.9808 21.7884 18.6256 19.9484C19.7888 19.5612 20.632 18.4652 20.632 17.1724C20.632 15.6076 19.3968 14.3308 17.8512 14.254C16.6752 11.6684 14.8992 9.57723 14.784 9.44443C14.6928 9.33883 14.5104 9.33883 14.4208 9.44443C14.2432 9.65083 10.0656 14.5612 10.3376 18.734C10.512 21.4188 12.6704 22.6412 14.6032 22.6412L14.6016 22.6396ZM17.7056 19.6188C16.3568 19.6188 15.2592 18.5212 15.2592 17.1724C15.2592 15.8236 16.3568 14.726 17.7056 14.726C19.0544 14.726 20.152 15.8236 20.152 17.1724C20.152 18.5212 19.0544 19.6188 17.7056 19.6188ZM17.3216 14.2748C15.8896 14.4636 14.7792 15.6892 14.7792 17.1724C14.7792 18.7852 16.0912 20.0988 17.7056 20.0988C17.824 20.0988 17.9408 20.0892 18.0544 20.0764C17.4048 21.5004 15.9424 22.1612 14.6016 22.1612C12.8864 22.1612 10.9696 21.0796 10.816 18.702C10.5888 15.2076 13.7952 10.9836 14.6016 9.97883C15.0752 10.5676 16.3744 12.2668 17.3216 14.2748Z" fill="white"/>
<path d="M17.9567 17.0454C17.9535 16.9494 17.9647 16.8606 17.9903 16.779C18.0159 16.6958 18.0543 16.6238 18.1055 16.563C18.1567 16.5006 18.2207 16.4526 18.2975 16.419C18.3759 16.3838 18.4655 16.3662 18.5663 16.3662C18.6431 16.3662 18.7159 16.3782 18.7847 16.4022C18.8551 16.4262 18.9167 16.4606 18.9695 16.5054C19.0223 16.5502 19.0639 16.6054 19.0943 16.671C19.1263 16.7366 19.1423 16.8102 19.1423 16.8918C19.1423 16.9766 19.1287 17.0494 19.1015 17.1102C19.0743 17.171 19.0383 17.2254 18.9935 17.2734C18.9487 17.3198 18.8975 17.3622 18.8399 17.4006C18.7839 17.439 18.7271 17.4774 18.6695 17.5158C18.6119 17.5526 18.5559 17.5926 18.5015 17.6358C18.4471 17.679 18.3991 17.7294 18.3575 17.787H19.1519V18.0798H17.9183C17.9183 17.9822 17.9319 17.8974 17.9591 17.8254C17.9879 17.7534 18.0263 17.6894 18.0743 17.6334C18.1223 17.5758 18.1783 17.523 18.2423 17.475C18.3079 17.427 18.3767 17.3782 18.4487 17.3286C18.4855 17.303 18.5247 17.2774 18.5663 17.2518C18.6079 17.2246 18.6455 17.195 18.6791 17.163C18.7143 17.131 18.7431 17.095 18.7655 17.055C18.7895 17.015 18.8015 16.9694 18.8015 16.9182C18.8015 16.8366 18.7775 16.7734 18.7295 16.7286C18.6831 16.6822 18.6231 16.659 18.5495 16.659C18.4999 16.659 18.4575 16.671 18.4223 16.695C18.3887 16.7174 18.3615 16.7478 18.3407 16.7862C18.3199 16.823 18.3047 16.8646 18.2951 16.911C18.2871 16.9558 18.2831 17.0006 18.2831 17.0454H17.9567Z" fill="white"/>
<path d="M16.468 17.23C16.468 17.302 16.476 17.3724 16.492 17.4412C16.5096 17.5084 16.5368 17.5692 16.5736 17.6236C16.6104 17.678 16.6584 17.722 16.7176 17.7556C16.7768 17.7876 16.8488 17.8036 16.9336 17.8036C17.0184 17.8036 17.0904 17.7876 17.1496 17.7556C17.2088 17.722 17.2568 17.678 17.2936 17.6236C17.3304 17.5692 17.3568 17.5084 17.3728 17.4412C17.3904 17.3724 17.3992 17.302 17.3992 17.23C17.3992 17.1548 17.3904 17.082 17.3728 17.0116C17.3568 16.9412 17.3304 16.8788 17.2936 16.8244C17.2568 16.7684 17.2088 16.7244 17.1496 16.6924C17.0904 16.6588 17.0184 16.642 16.9336 16.642C16.8488 16.642 16.7768 16.6588 16.7176 16.6924C16.6584 16.7244 16.6104 16.7684 16.5736 16.8244C16.5368 16.8788 16.5096 16.9412 16.492 17.0116C16.476 17.082 16.468 17.1548 16.468 17.23ZM16.0912 17.23C16.0912 17.102 16.1104 16.9836 16.1488 16.8748C16.1872 16.7644 16.2424 16.6684 16.3144 16.5868C16.3864 16.5052 16.4744 16.4412 16.5784 16.3948C16.684 16.3484 16.8024 16.3252 16.9336 16.3252C17.0664 16.3252 17.1848 16.3484 17.2888 16.3948C17.3928 16.4412 17.4808 16.5052 17.5528 16.5868C17.6248 16.6684 17.68 16.7644 17.7184 16.8748C17.7568 16.9836 17.776 17.102 17.776 17.23C17.776 17.3548 17.7568 17.4716 17.7184 17.5804C17.68 17.6876 17.6248 17.7812 17.5528 17.8612C17.4808 17.9412 17.3928 18.0044 17.2888 18.0508C17.1848 18.0956 17.0664 18.118 16.9336 18.118C16.8024 18.118 16.684 18.0956 16.5784 18.0508C16.4744 18.0044 16.3864 17.9412 16.3144 17.8612C16.2424 17.7812 16.1872 17.6876 16.1488 17.5804C16.1104 17.4716 16.0912 17.3548 16.0912 17.23Z" fill="white"/>
<path d="M18.9552 12.7473C19.728 12.7473 20.3552 12.1185 20.3552 11.3473C20.3552 10.5761 19.7264 9.94727 18.9552 9.94727C18.184 9.94727 17.5552 10.5761 17.5552 11.3473C17.5552 12.1185 18.184 12.7473 18.9552 12.7473ZM18.9552 10.4273C19.4624 10.4273 19.8752 10.8401 19.8752 11.3473C19.8752 11.8545 19.4624 12.2673 18.9552 12.2673C18.448 12.2673 18.0352 11.8545 18.0352 11.3473C18.0352 10.8401 18.448 10.4273 18.9552 10.4273Z" fill="white"/>
<path d="M19.6624 13.8541C19.6624 14.4093 20.1136 14.8605 20.6688 14.8605C21.224 14.8605 21.6752 14.4093 21.6752 13.8541C21.6752 13.2989 21.224 12.8477 20.6688 12.8477C20.1136 12.8477 19.6624 13.2989 19.6624 13.8541ZM20.6688 13.3277C20.9584 13.3277 21.1952 13.5645 21.1952 13.8541C21.1952 14.1437 20.9584 14.3805 20.6688 14.3805C20.3792 14.3805 20.1424 14.1437 20.1424 13.8541C20.1424 13.5645 20.3792 13.3277 20.6688 13.3277Z" fill="white"/>
</g>
<defs>
<clipPath id="clip0_612_19982">
<rect width="32" height="32" rx="16" fill="white"/>
</clipPath>
</defs>
</svg>
