<svg width="13" height="18" viewBox="0 0 13 18" fill="none" xmlns="http://www.w3.org/2000/svg">
<path d="M6.63038 7.96427C6.72728 7.58039 7.27272 7.58039 7.36962 7.96427L7.46827 8.35508C7.91978 10.1437 9.37388 11.5041 11.1886 11.8357C11.5565 11.9029 11.5565 12.4304 11.1886 12.4976C9.37388 12.8292 7.91978 14.1896 7.46827 15.9783L7.36962 16.3691C7.27272 16.7529 6.72728 16.7529 6.63038 16.3691L6.53173 15.9783C6.08022 14.1896 4.62612 12.8292 2.81141 12.4976C2.44345 12.4304 2.44345 11.9029 2.81141 11.8357C4.62612 11.5041 6.08022 10.1437 6.53173 8.35508L6.63038 7.96427Z" fill="url(#paint0_linear_585_9452)"/>
<path d="M3.74733 2.3402C3.78221 2.0402 4.21779 2.0402 4.25267 2.3402C4.38323 3.46313 5.23923 4.36516 6.35379 4.5543L6.44808 4.5703C6.74465 4.62063 6.74465 5.04669 6.44808 5.09702L6.35379 5.11302C5.23923 5.30216 4.38323 6.20418 4.25267 7.32712C4.21779 7.62711 3.78221 7.62711 3.74733 7.32712C3.61677 6.20419 2.76077 5.30216 1.64621 5.11302L1.55192 5.09702C1.25535 5.04669 1.25535 4.62063 1.55192 4.5703L1.64621 4.5543C2.76077 4.36516 3.61677 3.46313 3.74733 2.3402Z" fill="url(#paint1_linear_585_9452)"/>
<defs>
<linearGradient id="paint0_linear_585_9452" x1="7" y1="6.3172" x2="7" y2="18.0161" gradientUnits="userSpaceOnUse">
<stop offset="0.22" stop-color="#5594BD"/>
<stop offset="1" stop-color="#82CDFF"/>
</linearGradient>
<linearGradient id="paint1_linear_585_9452" x1="4" y1="0.833659" x2="4" y2="8.83366" gradientUnits="userSpaceOnUse">
<stop offset="0.22" stop-color="#7DACCB"/>
<stop offset="1" stop-color="#8ED2FF"/>
</linearGradient>
</defs>
</svg>
