<svg width="32" height="32" viewBox="0 0 32 32" fill="none" xmlns="http://www.w3.org/2000/svg">
<g clip-path="url(#clip0_612_19840)">
<rect width="32" height="32" rx="16" fill="#2B5D80"/>
<path d="M15.5 -4C26.2696 -4 35 4.73045 35 15.5C35 26.2696 26.2696 35 15.5 35C4.73045 35 -4 26.2696 -4 15.5C-4 4.73045 4.73045 -4 15.5 -4ZM15.5 31.49C24.331 31.49 31.49 24.331 31.49 15.5C31.49 6.66896 24.331 -0.489999 15.5 -0.489999C6.66897 -0.489998 -0.490001 6.66897 -0.490001 15.5C-0.49 24.331 6.66897 31.49 15.5 31.49Z" fill="#F7F6F9"/>
<path d="M15.5 -2.245C15.5 -3.21426 16.2873 -4.00819 17.2526 -3.92108C19.4259 -3.72496 21.555 -3.16504 23.55 -2.26082C26.079 -1.11459 28.334 0.558486 30.1641 2.64649C31.9943 4.73449 33.3575 7.18926 34.1625 9.84657C34.9675 12.5039 35.1957 15.3025 34.8319 18.0551C34.468 20.8077 33.5206 23.4509 32.0529 25.8079C30.5852 28.1648 28.631 30.1811 26.3212 31.7219C24.0114 33.2627 21.3992 34.2925 18.6593 34.7424C16.4979 35.0972 14.2964 35.0848 12.1468 34.7095C11.192 34.5429 10.638 33.5716 10.8898 32.6357C11.1416 31.6997 12.1042 31.1553 13.0621 31.3031C14.7254 31.5597 16.4226 31.5526 18.0906 31.2787C20.3373 30.9099 22.4794 30.0654 24.3734 28.802C26.2674 27.5385 27.8698 25.8851 29.0734 23.9524C30.2769 22.0198 31.0538 19.8523 31.3521 17.5952C31.6505 15.338 31.4633 13.0432 30.8032 10.8642C30.1431 8.68519 29.0253 6.67228 27.5246 4.96012C26.0238 3.24796 24.1747 1.87604 22.101 0.936126C20.5614 0.238311 18.9244 -0.209431 17.2515 -0.393784C16.2881 -0.499954 15.5 -1.27574 15.5 -2.245Z" fill="white"/>
<g clip-path="url(#clip1_612_19840)">
<path d="M14.4088 11.3333C14.2488 11.3333 13.9562 11.266 13.8022 10.8173C13.6468 10.362 13.6168 9.372 13.8135 8.82267C13.9722 8.37933 14.2682 8.318 14.4102 8.33333C14.5368 8.33333 14.8488 8.38333 15.0075 8.832C15.1835 9.33267 15.1855 10.3187 15.0122 10.8233C14.8588 11.2673 14.5688 11.3333 14.4088 11.3333ZM11.8355 11.6667C11.8348 11.6667 11.8348 11.6667 11.8355 11.6667C11.5382 11.6667 11.2595 11.5087 11.0495 11.2233C10.5788 10.5807 10.4875 9.18067 11.0822 8.40667C11.2828 8.144 11.5495 8 11.8342 8H11.8368C12.1248 8.00067 12.3948 8.15 12.5975 8.41867C13.1302 9.12467 13.1362 10.5187 12.6102 11.2333C12.4042 11.5127 12.1288 11.6667 11.8355 11.6667ZM11.8348 9.07467C11.5982 9.46467 11.6242 10.246 11.8268 10.5873C12.0542 10.1747 12.0468 9.42933 11.8348 9.07467ZM16.3408 11.798C16.1288 11.7787 15.8595 11.644 15.7808 11.116C15.7195 10.7047 15.7408 10.2467 15.8382 9.89133C15.9855 9.35867 16.3355 9.32933 16.4742 9.33533C16.6988 9.35133 16.9822 9.494 17.0568 10.0827C17.1088 10.484 17.0688 11.0187 16.9628 11.3253C16.8615 11.62 16.6448 11.822 16.3408 11.798ZM18.2202 12.6613C18.0008 12.63 17.7288 12.4713 17.6782 11.8907C17.6429 11.5381 17.6773 11.182 17.7795 10.8427C17.9448 10.3227 18.3182 10.324 18.4315 10.3367C18.7655 10.376 18.9542 10.652 18.9928 11.158C19.0155 11.4587 18.9855 11.9027 18.8655 12.216C18.7315 12.5653 18.4728 12.6973 18.2202 12.6613ZM19.7202 14.4947C19.5008 14.4633 19.2288 14.3047 19.1782 13.724C19.1429 13.3714 19.1773 13.0153 19.2795 12.676C19.4448 12.156 19.8182 12.1587 19.9315 12.17C20.2655 12.2093 20.4542 12.4853 20.4928 12.9913C20.5155 13.292 20.4855 13.736 20.3655 14.0493C20.2315 14.3987 19.9728 14.5307 19.7202 14.4947ZM15.2015 24.0007C15.021 24.0028 14.8409 23.9838 14.6648 23.944C13.1962 23.578 12.3442 22.1487 12.6828 20.6187C12.7562 20.2893 12.8575 19.966 12.9582 19.6433L12.9915 19.5373C13.3415 18.412 12.8675 17.7367 12.4495 17.1413C12.3698 17.0303 12.2931 16.9172 12.2195 16.802C11.6608 15.9047 11.5295 14.9113 11.8582 14.076C12.1555 13.3213 12.7988 12.7767 13.6695 12.542C14.8168 12.232 15.9762 12.4213 17.1168 13.1013C18.7168 14.056 19.4455 15.8567 18.9735 17.6887C18.592 19.1529 18.1875 20.6111 17.7602 22.0627C17.4882 22.9973 16.8402 23.6373 15.8862 23.9133C15.6629 23.9732 15.4326 24.0026 15.2015 24.0007ZM14.7475 13.3967C14.4711 13.3975 14.1961 13.4347 13.9295 13.5073C13.3648 13.6593 12.9702 13.9833 12.7895 14.4427C12.5775 14.9807 12.6795 15.648 13.0688 16.274C13.1262 16.366 13.1942 16.4627 13.2675 16.5667C13.7362 17.2333 14.4442 18.2393 13.9468 19.8353L13.9128 19.9433C13.8202 20.238 13.7275 20.5347 13.6602 20.836C13.4415 21.8233 13.9775 22.7427 14.9075 22.9747C15.0242 23.004 15.3682 23.022 15.6095 22.9527C16.2348 22.772 16.6235 22.3893 16.8008 21.7827C17.2255 20.3412 17.6271 18.893 18.0055 17.4387C18.3702 16.026 17.8335 14.6927 16.6055 13.96C15.9735 13.5833 15.3595 13.3967 14.7475 13.3967Z" fill="white"/>
</g>
</g>
<defs>
<clipPath id="clip0_612_19840">
<rect width="32" height="32" rx="16" fill="white"/>
</clipPath>
<clipPath id="clip1_612_19840">
<rect width="16" height="16" fill="white" transform="translate(8 8)"/>
</clipPath>
</defs>
</svg>
