<svg width="32" height="32" viewBox="0 0 32 32" fill="none" xmlns="http://www.w3.org/2000/svg">
<g clip-path="url(#clip0_612_19963)">
<rect width="32" height="32" rx="16" fill="#2D8100"/>
<path d="M15.5 -4C26.2696 -4 35 4.73045 35 15.5C35 26.2696 26.2696 35 15.5 35C4.73045 35 -4 26.2696 -4 15.5C-4 4.73045 4.73045 -4 15.5 -4ZM15.5 31.49C24.331 31.49 31.49 24.331 31.49 15.5C31.49 6.66896 24.331 -0.489999 15.5 -0.489999C6.66897 -0.489998 -0.490001 6.66897 -0.490001 15.5C-0.49 24.331 6.66897 31.49 15.5 31.49Z" fill="#F7F6F9"/>
<path d="M15.5 -2.245C15.5 -3.21426 16.2873 -4.00819 17.2527 -3.92108C19.4259 -3.72496 21.5551 -3.16505 23.55 -2.26082C26.079 -1.11459 28.334 0.558489 30.1641 2.64649C31.9943 4.73449 33.3575 7.18926 34.1625 9.84657C34.9675 12.5039 35.1957 15.3025 34.8319 18.0551C34.4681 20.8077 33.5206 23.4509 32.0529 25.8079C30.5852 28.1648 28.631 30.1811 26.3212 31.7219C24.0114 33.2627 21.3992 34.2925 18.6593 34.7424C16.4979 35.0972 14.2964 35.0848 12.1468 34.7095C11.192 34.5429 10.638 33.5716 10.8898 32.6357C11.1416 31.6997 12.1042 31.1553 13.0621 31.3031C14.7255 31.5597 16.4226 31.5526 18.0906 31.2787C20.3373 30.9099 22.4794 30.0654 24.3734 28.802C26.2675 27.5385 27.8698 25.8851 29.0734 23.9524C30.2769 22.0198 31.0538 19.8523 31.3521 17.5952C31.6505 15.338 31.4633 13.0432 30.8032 10.8642C30.1432 8.68519 29.0254 6.67228 27.5246 4.96012C26.0238 3.24796 24.1748 1.87604 22.101 0.936126C20.5614 0.238311 18.9244 -0.209432 17.2515 -0.393784C16.2881 -0.499955 15.5 -1.27574 15.5 -2.245Z" fill="white"/>
<path d="M19.8199 23.7812H15.4199C15.3196 23.7813 15.2225 23.7459 15.1457 23.6814C15.0688 23.6169 15.0172 23.5274 14.9999 23.4286C14.8446 22.5399 14.6519 21.8986 14.4973 21.7548C14.2364 21.5122 13.6237 21.5769 13.1311 21.6288C12.9652 21.6463 12.8084 21.6629 12.6686 21.6686C11.4618 21.7311 11.3894 20.9519 11.3202 20.1984C11.3026 19.9055 11.2569 19.6149 11.1836 19.3308C11.146 19.1938 11.0809 19.0659 10.9922 18.9549C10.9036 18.8439 10.7932 18.7521 10.6679 18.6852C10.4662 18.5523 10.2376 18.4017 10.2576 18.0203C10.2672 17.8358 10.4126 17.6748 10.5966 17.4713C10.8802 17.1573 11.2686 16.7273 11.2702 16.0476C11.2709 15.8712 11.2527 15.6351 11.2349 15.4081C11.2207 15.2242 11.2072 15.0507 11.2026 14.9016C11.1399 12.9027 12.6081 11.1999 14.8556 10.6649C14.8756 10.6598 14.8965 10.6588 14.917 10.6619C14.9375 10.6649 14.9572 10.672 14.9749 10.6828C14.9926 10.6935 15.008 10.7077 15.0202 10.7244C15.0324 10.7411 15.0411 10.7601 15.0459 10.7803C15.0507 10.8004 15.0514 10.8213 15.0481 10.8418C15.0447 10.8622 15.0373 10.8818 15.0263 10.8993C15.0153 10.9169 15.001 10.9321 14.9841 10.944C14.9672 10.956 14.948 10.9644 14.9278 10.9689C12.8288 11.4689 11.4571 13.0452 11.5144 14.8918C11.5189 15.0338 11.5322 15.2043 11.5462 15.3837C11.5643 15.6177 11.5831 15.8597 11.5823 16.0486C11.5806 16.8486 11.1276 17.3486 10.8281 17.6807C10.7031 17.8196 10.5731 17.9629 10.5692 18.0367C10.5591 18.2316 10.6397 18.2927 10.8394 18.4242C10.9954 18.5115 11.1325 18.6287 11.2429 18.7692C11.3534 18.9096 11.4349 19.0706 11.4829 19.2427C11.562 19.5461 11.6116 19.8565 11.6309 20.1696C11.7014 20.9387 11.7408 21.4027 12.6537 21.3562C12.7856 21.3508 12.9374 21.3348 13.0982 21.3178C13.6826 21.2563 14.3451 21.1863 14.7099 21.5257C14.9808 21.7777 15.1849 22.6701 15.3077 23.3743C15.3123 23.4007 15.3262 23.4247 15.3467 23.4419C15.3673 23.4591 15.3934 23.4685 15.4202 23.4684H19.8202C19.8381 23.4685 19.8557 23.4644 19.8717 23.4564C19.8876 23.4485 19.9015 23.4369 19.9122 23.4226C19.923 23.4085 19.9302 23.3921 19.9334 23.3747C19.9365 23.3574 19.9355 23.3395 19.9303 23.3226C19.7822 22.8126 19.5261 21.8372 19.4752 21.0341C19.4437 20.5383 19.5877 19.8076 19.9252 19.3704C21.0476 17.9143 21.4961 16.7359 21.4252 15.4301C21.4241 15.4095 21.427 15.389 21.4338 15.3696C21.4407 15.3502 21.4512 15.3324 21.465 15.3171C21.4787 15.3018 21.4953 15.2893 21.5138 15.2804C21.5323 15.2716 21.5524 15.2664 21.5729 15.2653C21.5935 15.2642 21.614 15.2671 21.6334 15.2739C21.6528 15.2808 21.6706 15.2913 21.6859 15.3051C21.7012 15.3188 21.7137 15.3354 21.7226 15.3539C21.7314 15.3724 21.7366 15.3925 21.7377 15.4131C21.8127 16.8006 21.3456 18.0407 20.1737 19.5611C19.8869 19.9332 19.7612 20.5874 19.7881 21.0143C19.8372 21.7875 20.0871 22.7377 20.2316 23.2353C20.25 23.2989 20.2534 23.3659 20.2415 23.431C20.2296 23.4962 20.2026 23.5576 20.1628 23.6105C20.123 23.6634 20.0714 23.7063 20.0121 23.7359C19.9529 23.7654 19.8875 23.7807 19.8213 23.7806L19.8199 23.7812Z" fill="white" stroke="white" stroke-width="0.1"/>
<path d="M12.2896 19.584H11.3701C11.3287 19.584 11.2889 19.5675 11.2596 19.5382C11.2303 19.5089 11.2139 19.4692 11.2139 19.4277C11.2139 19.3863 11.2303 19.3466 11.2596 19.3172C11.2889 19.2879 11.3287 19.2715 11.3701 19.2715H12.2896C12.3311 19.2715 12.3708 19.2879 12.4001 19.3172C12.4294 19.3466 12.4459 19.3863 12.4459 19.4277C12.4459 19.4692 12.4294 19.5089 12.4001 19.5382C12.3708 19.5675 12.3311 19.584 12.2896 19.584Z" fill="white" stroke="white" stroke-width="0.1"/>
<path d="M12.1746 16.5561C12.3231 16.5561 12.4434 16.4357 12.4434 16.2873C12.4434 16.1389 12.3231 16.0186 12.1746 16.0186C12.0262 16.0186 11.9059 16.1389 11.9059 16.2873C11.9059 16.4357 12.0262 16.5561 12.1746 16.5561Z" fill="white" stroke="white" stroke-width="0.1"/>
<path d="M19.0826 14.7418C18.5403 14.7418 18.0103 14.581 17.5595 14.2798C17.1086 13.9785 16.7572 13.5504 16.5498 13.0494C16.3423 12.5485 16.288 11.9972 16.3937 11.4655C16.4995 10.9337 16.7606 10.4452 17.144 10.0618C17.5274 9.67835 18.0159 9.41725 18.5477 9.31147C19.0795 9.20569 19.6307 9.25998 20.1317 9.46747C20.6326 9.67497 21.0608 10.0264 21.362 10.4772C21.6633 10.928 21.8241 11.4581 21.8241 12.0003C21.8232 12.7271 21.5341 13.424 21.0202 13.9379C20.5062 14.4519 19.8094 14.741 19.0826 14.7418ZM19.0826 9.57129C18.6022 9.57129 18.1325 9.71375 17.7331 9.98065C17.3336 10.2476 17.0223 10.6269 16.8385 11.0708C16.6546 11.5146 16.6065 12.003 16.7002 12.4742C16.794 12.9453 17.0253 13.3782 17.365 13.7179C17.7047 14.0576 18.1375 14.2889 18.6087 14.3826C19.0799 14.4763 19.5683 14.4282 20.0121 14.2444C20.4559 14.0605 20.8353 13.7492 21.1022 13.3498C21.3691 12.9503 21.5116 12.4807 21.5116 12.0003C21.5108 11.3563 21.2547 10.7389 20.7993 10.2835C20.344 9.82816 19.7266 9.57202 19.0826 9.57129Z" fill="white" stroke="white" stroke-width="0.1"/>
<path d="M19.0825 13.77C18.7324 13.77 18.3901 13.6662 18.099 13.4717C17.8079 13.2771 17.581 13.0007 17.447 12.6772C17.313 12.3537 17.278 11.9978 17.3463 11.6544C17.4146 11.311 17.5832 10.9956 17.8308 10.748C18.0783 10.5004 18.3938 10.3318 18.7371 10.2635C19.0805 10.1952 19.4365 10.2303 19.76 10.3642C20.0834 10.4982 20.3599 10.7251 20.5544 11.0162C20.7489 11.3074 20.8528 11.6496 20.8528 11.9997C20.8522 12.4691 20.6655 12.919 20.3336 13.2509C20.0018 13.5827 19.5518 13.7694 19.0825 13.77ZM19.0825 10.542C18.7942 10.542 18.5123 10.6275 18.2726 10.7877C18.0329 10.9478 17.8461 11.1755 17.7357 11.4419C17.6254 11.7083 17.5965 12.0014 17.6528 12.2841C17.709 12.5669 17.8479 12.8267 18.0517 13.0305C18.2556 13.2344 18.5153 13.3732 18.7981 13.4295C19.0809 13.4857 19.374 13.4569 19.6404 13.3465C19.9067 13.2362 20.1344 13.0494 20.2946 12.8096C20.4548 12.5699 20.5403 12.2881 20.5403 11.9997C20.5399 11.6132 20.3861 11.2427 20.1129 10.9694C19.8396 10.6961 19.469 10.5424 19.0825 10.542Z" fill="white" stroke="white" stroke-width="0.1"/>
<path d="M19.0825 15.8125C18.3285 15.8125 17.5914 15.5889 16.9644 15.17C16.3374 14.7511 15.8488 14.1556 15.5602 13.459C15.2717 12.7623 15.1962 11.9958 15.3433 11.2562C15.4904 10.5167 15.8535 9.83734 16.3867 9.30416C16.9199 8.77097 17.5992 8.40786 18.3387 8.26076C19.0783 8.11365 19.8449 8.18915 20.5415 8.47771C21.2381 8.76627 21.8336 9.25493 22.2525 9.88189C22.6714 10.5089 22.895 11.246 22.895 12C22.8939 13.0108 22.4919 13.9799 21.7771 14.6946C21.0624 15.4093 20.0933 15.8114 19.0825 15.8125ZM19.0825 8.5C18.3903 8.5 17.7136 8.70527 17.138 9.08986C16.5625 9.47444 16.1138 10.0211 15.8489 10.6606C15.584 11.3002 15.5147 12.0039 15.6498 12.6828C15.7848 13.3618 16.1182 13.9854 16.6076 14.4749C17.0971 14.9644 17.7208 15.2977 18.3997 15.4328C19.0786 15.5678 19.7824 15.4985 20.4219 15.2336C21.0615 14.9687 21.6081 14.5201 21.9927 13.9445C22.3772 13.3689 22.5825 12.6922 22.5825 12C22.5815 11.0721 22.2124 10.1824 21.5562 9.5263C20.9001 8.87015 20.0105 8.50106 19.0825 8.5Z" fill="white" stroke="white" stroke-width="0.1"/>
<path d="M19.0824 12.7098C18.942 12.7098 18.8048 12.6682 18.688 12.5902C18.5713 12.5122 18.4803 12.4013 18.4266 12.2716C18.3729 12.1419 18.3588 11.9991 18.3862 11.8614C18.4136 11.7237 18.4812 11.5972 18.5805 11.498C18.6798 11.3987 18.8062 11.3311 18.9439 11.3037C19.0816 11.2763 19.2244 11.2903 19.3541 11.3441C19.4838 11.3978 19.5947 11.4888 19.6727 11.6055C19.7507 11.7223 19.7923 11.8595 19.7923 11.9999C19.7921 12.1881 19.7172 12.3685 19.5841 12.5016C19.4511 12.6347 19.2706 12.7096 19.0824 12.7098ZM19.0824 11.6025C19.0038 11.6025 18.927 11.6258 18.8617 11.6695C18.7963 11.7132 18.7454 11.7752 18.7153 11.8478C18.6852 11.9205 18.6774 12.0004 18.6927 12.0774C18.708 12.1545 18.7459 12.2253 18.8014 12.2809C18.857 12.3365 18.9278 12.3743 19.0049 12.3897C19.082 12.405 19.1619 12.3971 19.2345 12.367C19.3071 12.337 19.3692 12.286 19.4128 12.2207C19.4565 12.1553 19.4798 12.0785 19.4798 11.9999C19.4797 11.8946 19.4378 11.7935 19.3633 11.719C19.2888 11.6445 19.1878 11.6026 19.0824 11.6025Z" fill="white" stroke="white" stroke-width="0.1"/>
</g>
<defs>
<clipPath id="clip0_612_19963">
<rect width="32" height="32" rx="16" fill="white"/>
</clipPath>
</defs>
</svg>
