<svg width="20" height="21" viewBox="0 0 20 21" fill="none" xmlns="http://www.w3.org/2000/svg">
<path d="M4.9082 5.42188C4.69258 5.42188 4.51758 5.59687 4.51758 5.8125C4.51758 6.02812 4.69258 6.20312 4.9082 6.20312C5.12383 6.20312 5.29883 6.02812 5.29883 5.8125C5.29883 5.59687 5.12383 5.42188 4.9082 5.42188ZM8.42363 12.7262H7.25184V11.5544C7.25184 11.3387 7.07691 11.1637 6.86121 11.1637C6.64551 11.1637 6.47062 11.3387 6.47062 11.5544V12.7262H5.29883C5.08312 12.7262 4.9082 12.9011 4.9082 13.1168C4.9082 13.3324 5.08312 13.5074 5.29883 13.5074H6.47062V14.6792C6.47062 14.8949 6.64555 15.0698 6.86121 15.0698C7.07687 15.0698 7.25184 14.8949 7.25184 14.6792V13.5074H8.42363C8.63934 13.5074 8.81426 13.3325 8.81426 13.1168C8.81426 12.9011 8.63937 12.7262 8.42363 12.7262Z" fill="black"/>
<path d="M18.9659 13.0775C18.1024 11.582 16.1932 11.0701 14.6974 11.9338L13.1107 12.8498V9.45777C13.1107 9.03844 12.9721 8.62231 12.7202 8.28598L10.7671 5.68203V4.5732C11.2218 4.41195 11.5484 3.97781 11.5484 3.46855V1.6718C11.5483 1.02566 11.0226 0.5 10.3765 0.5H3.34559C2.69945 0.5 2.17375 1.02566 2.17375 1.6718V3.46859C2.17375 3.97777 2.50035 4.41199 2.95496 4.57324V5.68207L1.0018 8.28617C0.75 8.62234 0.611328 9.03844 0.611328 9.45777V17.0226C0.611328 18.0995 1.48746 18.9756 2.56434 18.9756H8.84176C9.71758 20.4437 11.6061 20.935 13.0864 20.0803L17.8222 17.346C19.3048 16.4898 19.8337 14.5812 18.9659 13.0775ZM2.95496 1.6718C2.95496 1.45641 3.1302 1.28117 3.34555 1.28117H10.3764C10.5918 1.28117 10.7671 1.45641 10.7671 1.6718V3.46859C10.7671 3.68398 10.5918 3.85918 10.3764 3.85918H3.34559C3.1302 3.85918 2.955 3.68395 2.955 3.46859L2.95496 1.6718ZM1.62695 8.75465L3.65805 6.0466C3.70876 5.97899 3.73618 5.89675 3.73617 5.81223V4.64043H9.98586V5.42164H6.47043C6.25473 5.42164 6.0798 5.59656 6.0798 5.81227C6.0798 6.02797 6.25473 6.20289 6.47043 6.20289H10.1812L12.095 8.75453C12.22 8.92152 12.2977 9.12133 12.3212 9.32774H1.40086C1.4243 9.12129 1.50199 8.92148 1.62695 8.75465ZM2.56438 18.1944C1.91824 18.1944 1.39258 17.6688 1.39258 17.0226V16.6281H8.48926C8.36539 17.1346 8.36621 17.6755 8.50805 18.1945H2.56438V18.1944ZM8.79563 15.8508H1.39254V10.1089H12.3295V13.3008L9.96156 14.668C9.46785 14.9532 9.06879 15.3592 8.79563 15.8508ZM12.6959 19.4037C11.5749 20.051 10.1425 19.6682 9.49477 18.5464C8.84395 17.4139 9.23836 15.9879 10.3523 15.3445L12.4725 14.1204L14.8161 18.1796L12.6959 19.4037ZM17.4316 16.6695L15.4927 17.789L13.149 13.7297L15.088 12.6104C16.2097 11.9628 17.6416 12.3463 18.2893 13.468C18.9399 14.5955 18.5443 16.027 17.4316 16.6695Z" fill="black"/>
</svg>
