<svg width="20" height="20" viewBox="0 0 20 20" fill="none" xmlns="http://www.w3.org/2000/svg">
<path d="M13.125 15.625H6.875C5.5 15.625 4.375 14.5 4.375 13.125V6.875C4.375 5.5 5.5 4.375 6.875 4.375H13.125C14.5 4.375 15.625 5.5 15.625 6.875V13.125C15.625 14.5 14.5 15.625 13.125 15.625Z" stroke="white" stroke-miterlimit="10" stroke-linecap="round" stroke-linejoin="round"/>
<path d="M14.375 4.375H5.625L6.0625 1.6875C6.1875 1.0625 6.6875 0.625 7.3125 0.625H12.6875C13.3125 0.625 13.8125 1.0625 13.9375 1.6875L14.375 4.375Z" stroke="white" stroke-miterlimit="10" stroke-linecap="round" stroke-linejoin="round"/>
<path d="M12.6875 19.375H7.3125C6.6875 19.375 6.1875 18.9375 6.0625 18.3125L5.625 15.625H14.375L13.9375 18.3125C13.8125 18.9375 13.3125 19.375 12.6875 19.375Z" stroke="white" stroke-miterlimit="10" stroke-linecap="round" stroke-linejoin="round"/>
<path d="M6.875 11.875H8.75L10.625 7.5L11.875 10H13.125" stroke="white" stroke-miterlimit="10" stroke-linecap="round" stroke-linejoin="round"/>
</svg>
