<svg width="32" height="32" viewBox="0 0 32 32" fill="none" xmlns="http://www.w3.org/2000/svg">
<g clip-path="url(#clip0_747_9037)">
<rect width="32" height="32" rx="16" fill="#22577A"/>
<path d="M15.5 -4C26.2696 -4 35 4.73045 35 15.5C35 26.2696 26.2696 35 15.5 35C4.73045 35 -4 26.2696 -4 15.5C-4 4.73045 4.73045 -4 15.5 -4ZM15.5 31.49C24.331 31.49 31.49 24.331 31.49 15.5C31.49 6.66896 24.331 -0.489999 15.5 -0.489999C6.66897 -0.489998 -0.490001 6.66897 -0.490001 15.5C-0.49 24.331 6.66897 31.49 15.5 31.49Z" fill="#F7F6F9"/>
<path d="M15.5 -2.245C15.5 -3.21426 16.2873 -4.00819 17.2527 -3.92108C19.4259 -3.72496 21.5551 -3.16505 23.55 -2.26082C26.079 -1.11459 28.334 0.558489 30.1641 2.64649C31.9943 4.73449 33.3575 7.18926 34.1625 9.84657C34.9675 12.5039 35.1957 15.3025 34.8319 18.0551C34.4681 20.8077 33.5206 23.4509 32.0529 25.8079C30.5852 28.1648 28.631 30.1811 26.3212 31.7219C24.0114 33.2627 21.3992 34.2925 18.6593 34.7424C16.4979 35.0972 14.2964 35.0848 12.1468 34.7095C11.192 34.5429 10.638 33.5716 10.8898 32.6357C11.1416 31.6997 12.1042 31.1553 13.0621 31.3031C14.7255 31.5597 16.4226 31.5526 18.0906 31.2787C20.3373 30.9099 22.4794 30.0654 24.3734 28.802C26.2675 27.5385 27.8698 25.8851 29.0734 23.9524C30.2769 22.0198 31.0538 19.8523 31.3521 17.5952C31.6505 15.338 31.4633 13.0432 30.8032 10.8642C30.1432 8.68519 29.0254 6.67228 27.5246 4.96012C26.0238 3.24796 24.1748 1.87604 22.101 0.936126C20.5614 0.238311 18.9244 -0.209432 17.2515 -0.393784C16.2881 -0.499955 15.5 -1.27574 15.5 -2.245Z" fill="white"/>
<g clip-path="url(#clip1_747_9037)">
<path d="M8.33695 17.4815C8.46834 17.4563 8.55464 17.3292 8.52943 17.1978C8.52604 17.1804 8.20798 15.4408 9.32555 14.0938C9.38131 14.0264 9.39634 13.9343 9.3658 13.8524C9.35949 13.8359 8.73646 12.1656 9.53258 10.92C10.0548 10.1031 11.0783 9.63663 12.5745 9.53336C12.6293 9.52948 12.6812 9.50718 12.7214 9.46984C12.7292 9.46306 13.4875 8.77457 14.2409 8.72754C14.3748 8.71881 14.4761 8.6039 14.4679 8.47057C14.4596 8.33724 14.3374 8.22815 14.2109 8.24366C13.422 8.29312 12.6807 8.86815 12.4596 9.0553C10.8451 9.18184 9.72313 9.72099 9.12434 10.6587C8.33016 11.9018 8.72095 13.432 8.86689 13.8917C7.70713 15.3937 8.03876 17.2109 8.05331 17.289C8.07561 17.4054 8.17695 17.4858 8.29137 17.4858C8.3064 17.4854 8.32192 17.4844 8.33695 17.4815Z" fill="white" stroke="white" stroke-width="0.5"/>
<path d="M12.0262 23.6817C12.0737 23.7316 12.1377 23.7573 12.2022 23.7573C12.2618 23.7573 12.3219 23.7355 12.3685 23.6909C12.4659 23.5993 12.4703 23.4456 12.3782 23.3481C12.0228 22.9719 12.0936 21.753 12.2254 21.0393C12.2279 20.9879 12.2773 19.7578 11.825 18.6441C11.5103 17.8693 11.472 16.8318 11.472 16.3779C11.4754 16.2984 11.4768 16.2179 11.4759 16.1365C11.4744 16.0051 11.3692 15.8989 11.2378 15.8965C11.1127 15.8965 10.9973 15.9964 10.991 16.1278C10.9905 16.1423 10.9862 16.2335 10.9862 16.3789C10.9144 17.8461 10.0742 18.9937 10.0654 19.0053C9.98544 19.113 10.0077 19.2647 10.1154 19.3442C10.2225 19.4252 10.3743 19.4024 10.4543 19.2948C10.48 19.2613 10.847 18.7619 11.134 17.9925C11.1908 18.2771 11.2688 18.5632 11.376 18.8269C11.7833 19.8301 11.7425 20.984 11.7454 20.9835C11.7062 21.1896 11.3852 23.0029 12.0262 23.6817Z" fill="white" stroke="white" stroke-width="0.5"/>
<path d="M22.8761 10.6581C22.2769 9.72043 21.1549 9.18128 19.5409 9.05473C19.3193 8.86758 18.5784 8.29255 17.7896 8.24261C17.665 8.22758 17.5409 8.3357 17.5326 8.46952C17.5239 8.60285 17.6257 8.71825 17.7595 8.72649C18.5096 8.774 19.2718 9.46249 19.2791 9.46928C19.3193 9.50612 19.3712 9.52843 19.426 9.53231C20.9207 9.63558 21.9438 10.1015 22.4664 10.9165C23.2621 12.1582 22.641 13.8353 22.6347 13.8518C22.6037 13.9333 22.6192 14.0254 22.6749 14.0928C23.7877 15.4344 23.4744 17.1793 23.4711 17.1968C23.4463 17.3282 23.5326 17.4552 23.664 17.4804C23.6795 17.4833 23.6946 17.4848 23.7096 17.4848C23.8235 17.4848 23.9249 17.4038 23.9472 17.2879C23.9622 17.2099 24.2934 15.3927 23.1336 13.8906C23.2795 13.4315 23.6703 11.9018 22.8761 10.6581Z" fill="white" stroke="white" stroke-width="0.5"/>
<path d="M20.8659 17.9925C21.1529 18.7619 21.5199 19.2608 21.5456 19.2948C21.6261 19.4024 21.7779 19.4252 21.8846 19.3442C21.9922 19.2647 22.014 19.1125 21.9345 19.0053C21.9253 18.9937 21.0855 17.8461 21.0138 16.3789C21.0138 16.2335 21.0094 16.1428 21.0089 16.1278C21.0026 15.9964 20.895 15.8975 20.7621 15.8965C20.6307 15.8989 20.5255 16.0056 20.5241 16.1365C20.5236 16.2189 20.5246 16.3004 20.5279 16.3808C20.5279 16.8356 20.4901 17.8698 20.175 18.6441C19.7226 19.7583 19.7721 20.9879 19.7789 21.0737C19.9073 21.753 19.9786 22.9709 19.6222 23.3481C19.5301 23.4456 19.5345 23.5993 19.6319 23.6909C19.678 23.7355 19.7376 23.7573 19.7978 23.7573C19.8622 23.7573 19.9262 23.7316 19.9738 23.6817C20.6147 23.0034 20.2933 21.1881 20.2584 21.0179C20.2579 21.0068 20.2123 19.8402 20.6235 18.8269C20.7311 18.5632 20.8092 18.2771 20.8659 17.9925Z" fill="white" stroke="white" stroke-width="0.5"/>
<path d="M20.912 13.2861C20.7781 13.2861 20.6695 13.3947 20.6695 13.5286C20.6695 14.8575 19.567 15.9392 18.2113 15.9392C17.4293 15.9392 16.7107 15.5843 16.2409 14.9642C16.1493 14.844 15.9466 14.8435 15.8545 14.9647C15.3847 15.5838 14.6661 15.9392 13.8841 15.9392C12.5289 15.9392 11.4259 14.858 11.4259 13.5286C11.4259 13.3947 11.3173 13.2861 11.1835 13.2861C11.0496 13.2861 10.941 13.3947 10.941 13.5286C10.941 15.1252 12.2613 16.4241 13.8841 16.4241C14.718 16.4241 15.4913 16.0861 16.0479 15.4873C16.6046 16.0856 17.3779 16.4241 18.2118 16.4241C19.8346 16.4241 21.1549 15.1252 21.1549 13.5286C21.1544 13.3947 21.0463 13.2861 20.912 13.2861Z" fill="white" stroke="white" stroke-width="0.5"/>
<path d="M18.1503 10.8698C17.3891 11.0691 16.4712 11.7134 16.0969 11.9932C15.1883 11.1626 13.9917 10.88 13.9384 10.8679C13.807 10.8383 13.6775 10.9192 13.6475 11.0497C13.6174 11.1806 13.6989 11.3105 13.8293 11.3406C13.8419 11.3435 15.0817 11.6363 15.9044 12.4819C15.952 12.5309 16.015 12.5551 16.078 12.5551C16.1314 12.5551 16.1847 12.5377 16.2293 12.5023C16.2409 12.4926 17.4094 11.5646 18.2724 11.3386C18.4019 11.3052 18.4795 11.1723 18.4455 11.0429C18.4121 10.9134 18.2802 10.8344 18.1503 10.8698Z" fill="white" stroke="white" stroke-width="0.5"/>
</g>
</g>
<defs>
<clipPath id="clip0_747_9037">
<rect width="32" height="32" rx="16" fill="white"/>
</clipPath>
<clipPath id="clip1_747_9037">
<rect width="16" height="16" fill="white" transform="translate(8 8)"/>
</clipPath>
</defs>
</svg>
